<svg xmlns="http://www.w3.org/2000/svg" xmlns:xlink="http://www.w3.org/1999/xlink" width="50" zoomAndPan="magnify" viewBox="0 0 37.5 37.499999" height="50" preserveAspectRatio="xMidYMid meet" version="1.0"><defs><clipPath id="2eceb153a8"><path d="M 12 2.9375 L 19 2.9375 L 19 10 L 12 10 Z M 12 2.9375 " clip-rule="nonzero"/></clipPath><clipPath id="0bef7853eb"><path d="M 6.050781 15 L 24 15 L 24 33.28125 L 6.050781 33.28125 Z M 6.050781 15 " clip-rule="nonzero"/></clipPath></defs><path fill="#231f20" d="M 36.808594 18.40625 C 36.808594 19.007812 36.78125 19.609375 36.722656 20.210938 C 36.664062 20.808594 36.574219 21.40625 36.457031 21.996094 C 36.339844 22.585938 36.191406 23.171875 36.015625 23.746094 C 35.84375 24.324219 35.640625 24.890625 35.410156 25.449219 C 35.179688 26.003906 34.921875 26.550781 34.636719 27.082031 C 34.351562 27.613281 34.042969 28.128906 33.707031 28.628906 C 33.375 29.132812 33.015625 29.613281 32.632812 30.082031 C 32.25 30.546875 31.84375 30.992188 31.417969 31.417969 C 30.992188 31.84375 30.546875 32.25 30.082031 32.632812 C 29.613281 33.015625 29.132812 33.375 28.628906 33.707031 C 28.128906 34.042969 27.613281 34.351562 27.082031 34.636719 C 26.550781 34.921875 26.003906 35.179688 25.449219 35.410156 C 24.890625 35.640625 24.324219 35.84375 23.746094 36.015625 C 23.171875 36.191406 22.585938 36.339844 21.996094 36.457031 C 21.40625 36.574219 20.808594 36.664062 20.210938 36.722656 C 19.609375 36.78125 19.007812 36.808594 18.40625 36.808594 C 17.800781 36.808594 17.199219 36.78125 16.601562 36.722656 C 16 36.664062 15.40625 36.574219 14.8125 36.457031 C 14.222656 36.339844 13.640625 36.191406 13.0625 36.015625 C 12.484375 35.84375 11.917969 35.640625 11.363281 35.410156 C 10.804688 35.179688 10.261719 34.921875 9.730469 34.636719 C 9.199219 34.351562 8.679688 34.042969 8.179688 33.707031 C 7.679688 33.375 7.195312 33.015625 6.730469 32.632812 C 6.261719 32.25 5.816406 31.84375 5.390625 31.417969 C 4.964844 30.992188 4.558594 30.546875 4.179688 30.082031 C 3.796875 29.613281 3.4375 29.132812 3.101562 28.628906 C 2.765625 28.128906 2.457031 27.613281 2.171875 27.082031 C 1.890625 26.550781 1.632812 26.003906 1.402344 25.449219 C 1.171875 24.890625 0.96875 24.324219 0.792969 23.746094 C 0.617188 23.171875 0.472656 22.585938 0.355469 21.996094 C 0.234375 21.40625 0.148438 20.808594 0.0898438 20.210938 C 0.03125 19.609375 0 19.007812 0 18.40625 C 0 17.800781 0.03125 17.199219 0.0898438 16.601562 C 0.148438 16 0.234375 15.40625 0.355469 14.8125 C 0.472656 14.222656 0.617188 13.640625 0.792969 13.0625 C 0.96875 12.484375 1.171875 11.917969 1.402344 11.363281 C 1.632812 10.804688 1.890625 10.261719 2.171875 9.730469 C 2.457031 9.199219 2.765625 8.679688 3.101562 8.179688 C 3.4375 7.679688 3.796875 7.195312 4.179688 6.730469 C 4.558594 6.261719 4.964844 5.816406 5.390625 5.390625 C 5.816406 4.964844 6.261719 4.558594 6.730469 4.179688 C 7.195312 3.796875 7.679688 3.4375 8.179688 3.101562 C 8.679688 2.765625 9.199219 2.457031 9.730469 2.171875 C 10.261719 1.890625 10.804688 1.632812 11.363281 1.402344 C 11.917969 1.171875 12.484375 0.96875 13.0625 0.792969 C 13.640625 0.617188 14.222656 0.472656 14.8125 0.355469 C 15.40625 0.234375 16 0.148438 16.601562 0.0898438 C 17.199219 0.03125 17.800781 0 18.40625 0 C 19.007812 0 19.609375 0.03125 20.210938 0.0898438 C 20.808594 0.148438 21.40625 0.234375 21.996094 0.355469 C 22.585938 0.472656 23.171875 0.617188 23.746094 0.792969 C 24.324219 0.96875 24.890625 1.171875 25.449219 1.402344 C 26.003906 1.632812 26.550781 1.890625 27.082031 2.171875 C 27.613281 2.457031 28.128906 2.765625 28.628906 3.101562 C 29.132812 3.4375 29.613281 3.796875 30.082031 4.179688 C 30.546875 4.558594 30.992188 4.964844 31.417969 5.390625 C 31.84375 5.816406 32.25 6.261719 32.632812 6.730469 C 33.015625 7.195312 33.375 7.679688 33.707031 8.179688 C 34.042969 8.679688 34.351562 9.199219 34.636719 9.730469 C 34.921875 10.261719 35.179688 10.804688 35.410156 11.363281 C 35.640625 11.917969 35.84375 12.484375 36.015625 13.0625 C 36.191406 13.640625 36.339844 14.222656 36.457031 14.8125 C 36.574219 15.40625 36.664062 16 36.722656 16.601562 C 36.78125 17.199219 36.808594 17.800781 36.808594 18.40625 Z M 36.808594 18.40625 " fill-opacity="1" fill-rule="nonzero"/><g clip-path="url(#2eceb153a8)"><path fill="#ffffff" d="M 18.582031 6.046875 C 18.582031 7.769531 17.191406 9.164062 15.46875 9.164062 C 13.75 9.164062 12.355469 7.769531 12.355469 6.046875 C 12.355469 4.328125 13.75 2.9375 15.46875 2.9375 C 17.191406 2.9375 18.582031 4.328125 18.582031 6.046875 Z M 18.582031 6.046875 " fill-opacity="1" fill-rule="nonzero"/></g><g clip-path="url(#0bef7853eb)"><path fill="#ffffff" d="M 15.546875 31.308594 C 11.417969 31.308594 8.058594 27.949219 8.058594 23.824219 C 8.058594 21.042969 9.601562 18.636719 11.859375 17.347656 L 11.859375 15.089844 C 8.457031 16.53125 6.066406 19.902344 6.066406 23.824219 C 6.066406 29.050781 10.316406 33.304688 15.546875 33.304688 C 19.015625 33.304688 22.027344 31.402344 23.675781 28.609375 L 22.652344 26.046875 C 21.699219 29.085938 18.894531 31.308594 15.546875 31.308594 Z M 15.546875 31.308594 " fill-opacity="1" fill-rule="nonzero"/></g><path fill="#ffffff" d="M 29.449219 26.753906 L 27.199219 26.753906 C 27.199219 26.753906 25.835938 22.867188 25.453125 21.835938 C 25.210938 21.15625 24.570312 20.660156 23.804688 20.660156 L 18.339844 20.660156 L 18.339844 16.839844 L 23.523438 16.839844 C 24.207031 16.839844 24.765625 16.285156 24.765625 15.597656 C 24.765625 14.910156 24.207031 14.347656 23.523438 14.347656 L 18.339844 14.347656 C 18.339844 14.347656 18.042969 9.816406 15.46875 9.816406 C 13.707031 9.816406 13.105469 11.246094 13.105469 13.007812 L 13.105469 21.007812 C 13.105469 22.769531 14.535156 24.203125 16.296875 24.203125 C 16.351562 24.203125 16.394531 24.171875 16.445312 24.171875 C 16.492188 24.175781 16.539062 24.203125 16.59375 24.203125 L 23.253906 24.203125 L 25.472656 29.742188 L 29.449219 29.742188 C 30.269531 29.742188 30.941406 29.070312 30.941406 28.246094 C 30.941406 27.421875 30.269531 26.753906 29.449219 26.753906 Z M 29.449219 26.753906 " fill-opacity="1" fill-rule="nonzero"/></svg>