<svg xmlns="http://www.w3.org/2000/svg" xmlns:xlink="http://www.w3.org/1999/xlink" width="40" zoomAndPan="magnify" viewBox="0 0 30 30.000001" height="40" preserveAspectRatio="xMidYMid meet" version="1.0"><defs><clipPath id="198baf5719"><path d="M 5.238281 0.00390625 L 24.753906 0.00390625 L 24.753906 29.027344 L 5.238281 29.027344 Z M 5.238281 0.00390625 " clip-rule="nonzero"/></clipPath></defs><g clip-path="url(#198baf5719)"><path fill="#1b47ff" d="M 15.390625 14.632812 C 12.382812 14.867188 9.890625 12.378906 10.128906 9.371094 C 10.3125 7.003906 12.230469 5.085938 14.597656 4.902344 C 17.605469 4.664062 20.09375 7.152344 19.859375 10.160156 C 19.671875 12.527344 17.753906 14.445312 15.390625 14.632812 Z M 14.84375 0.00390625 C 9.246094 0.0898438 4.964844 4.945312 5.25 10.539062 C 5.675781 18.804688 12.742188 26.886719 14.566406 28.84375 C 14.796875 29.089844 15.191406 29.089844 15.421875 28.839844 C 17.304688 26.820312 24.753906 18.292969 24.753906 9.765625 C 24.753906 4.328125 20.304688 -0.0742188 14.84375 0.00390625 " fill-opacity="1" fill-rule="nonzero"/></g></svg>