<svg xmlns="http://www.w3.org/2000/svg" xmlns:xlink="http://www.w3.org/1999/xlink" width="50" zoomAndPan="magnify" viewBox="0 0 37.5 37.499999" height="50" preserveAspectRatio="xMidYMid meet" version="1.0"><defs><clipPath id="12e2a5b568"><path d="M 6.058594 0 L 30.945312 0 L 30.945312 37.007812 L 6.058594 37.007812 Z M 6.058594 0 " clip-rule="nonzero"/></clipPath></defs><g clip-path="url(#12e2a5b568)"><path fill="#231f20" d="M 19.003906 18.648438 C 15.167969 18.953125 11.992188 15.777344 12.296875 11.941406 C 12.53125 8.925781 14.976562 6.480469 17.996094 6.242188 C 21.828125 5.941406 25.003906 9.117188 24.703125 12.953125 C 24.464844 15.96875 22.019531 18.414062 19.003906 18.648438 Z M 18.3125 0 C 11.171875 0.105469 5.710938 6.300781 6.078125 13.429688 C 6.621094 23.972656 15.628906 34.273438 17.953125 36.769531 C 18.25 37.085938 18.75 37.085938 19.046875 36.769531 C 21.445312 34.191406 30.945312 23.320312 30.945312 12.445312 C 30.945312 5.511719 25.269531 -0.101562 18.3125 0 " fill-opacity="1" fill-rule="nonzero"/></g></svg>