<svg xmlns="http://www.w3.org/2000/svg" xmlns:xlink="http://www.w3.org/1999/xlink" width="40" zoomAndPan="magnify" viewBox="0 0 30 30.000001" height="40" preserveAspectRatio="xMidYMid meet" version="1.0"><defs><clipPath id="15cd090d7b"><path d="M 0.484375 0 L 29.515625 0 L 29.515625 29.03125 L 0.484375 29.03125 Z M 0.484375 0 " clip-rule="nonzero"/></clipPath></defs><g clip-path="url(#15cd090d7b)"><path fill="#f46d57" d="M 29.515625 25.804688 C 29.515625 27.589844 28.070312 29.03125 26.289062 29.03125 L 3.710938 29.03125 C 1.929688 29.03125 0.484375 27.589844 0.484375 25.804688 L 0.484375 3.226562 C 0.484375 1.445312 1.929688 0 3.710938 0 L 26.289062 0 C 28.070312 0 29.515625 1.445312 29.515625 3.226562 Z M 29.515625 25.804688 " fill-opacity="1" fill-rule="nonzero"/></g><path fill="#ffffff" d="M 17.847656 14.519531 L 24.488281 7.878906 C 25.277344 7.089844 25.277344 5.8125 24.488281 5.027344 C 23.703125 4.238281 22.425781 4.238281 21.640625 5.027344 L 14.996094 11.671875 L 8.351562 5.027344 C 7.566406 4.238281 6.285156 4.238281 5.5 5.027344 C 4.714844 5.8125 4.714844 7.089844 5.5 7.878906 L 12.144531 14.519531 L 5.484375 21.179688 C 4.695312 21.96875 4.695312 23.246094 5.484375 24.03125 C 5.878906 24.425781 6.394531 24.621094 6.910156 24.621094 C 7.425781 24.621094 7.941406 24.425781 8.335938 24.03125 L 14.996094 17.371094 L 21.640625 24.015625 C 22.03125 24.40625 22.550781 24.605469 23.066406 24.605469 C 23.582031 24.605469 24.097656 24.40625 24.492188 24.015625 C 25.277344 23.226562 25.277344 21.949219 24.492188 21.164062 Z M 17.847656 14.519531 " fill-opacity="1" fill-rule="nonzero"/></svg>