<svg xmlns="http://www.w3.org/2000/svg" xmlns:xlink="http://www.w3.org/1999/xlink" width="500" zoomAndPan="magnify" viewBox="0 0 375 374.999991" height="500" preserveAspectRatio="xMidYMid meet" version="1.0"><rect x="-37.5" width="450" fill="#fff591" y="-37.499999" height="449.999989" fill-opacity="1"/><path fill="#ffffff" d="M 25.035156 155.917969 L 349.964844 155.917969 L 349.964844 219.082031 L 25.035156 219.082031 Z M 25.035156 155.917969 " fill-opacity="1" fill-rule="nonzero"/><path fill="#ffa3b6" d="M 349.964844 153.640625 L 25.035156 153.640625 L 25.035156 90.476562 L 349.964844 90.476562 Z M 349.964844 221.359375 L 25.035156 221.359375 L 25.035156 284.523438 L 349.964844 284.523438 Z M 349.964844 221.359375 " fill-opacity="1" fill-rule="nonzero"/><path fill="#0ed0fd" d="M 349.964844 88.199219 L 25.035156 88.199219 L 25.035156 25.035156 L 349.964844 25.035156 Z M 25.035156 349.964844 L 349.964844 349.964844 L 349.964844 286.796875 L 25.035156 286.796875 Z M 25.035156 349.964844 " fill-opacity="1" fill-rule="nonzero"/><path fill="#000000" d="M 0 0 L 0 375 L 375 375 L 375 0 Z M 372.722656 372.722656 L 2.277344 372.722656 L 2.277344 2.277344 L 372.722656 2.277344 Z M 352.238281 286.796875 L 352.238281 22.761719 L 22.761719 22.761719 L 22.761719 352.238281 L 352.238281 352.238281 Z M 349.964844 349.964844 L 25.035156 349.964844 L 25.035156 286.796875 L 349.964844 286.796875 Z M 25.035156 25.035156 L 349.964844 25.035156 L 349.964844 88.199219 L 25.035156 88.199219 Z M 25.035156 90.476562 L 349.964844 90.476562 L 349.964844 153.640625 L 25.035156 153.640625 Z M 25.035156 155.917969 L 349.964844 155.917969 L 349.964844 219.082031 L 25.035156 219.082031 Z M 25.035156 221.359375 L 349.964844 221.359375 L 349.964844 284.523438 L 25.035156 284.523438 Z M 25.035156 221.359375 " fill-opacity="1" fill-rule="nonzero"/></svg>