<svg xmlns="http://www.w3.org/2000/svg" xmlns:xlink="http://www.w3.org/1999/xlink" width="40" zoomAndPan="magnify" viewBox="0 0 30 30.000001" height="40" preserveAspectRatio="xMidYMid meet" version="1.0"><defs><clipPath id="e59d261cc4"><path d="M 0.484375 0 L 29.515625 0 L 29.515625 29.03125 L 0.484375 29.03125 Z M 0.484375 0 " clip-rule="nonzero"/></clipPath><clipPath id="823830e9b5"><path d="M 2.191406 2 L 23 2 L 23 23 L 2.191406 23 Z M 2.191406 2 " clip-rule="nonzero"/></clipPath><clipPath id="c6c4485cf1"><path d="M 17 17 L 27.59375 17 L 27.59375 27.109375 L 17 27.109375 Z M 17 17 " clip-rule="nonzero"/></clipPath></defs><g clip-path="url(#e59d261cc4)"><path fill="#ffffff" d="M 0.484375 0 L 29.515625 0 L 29.515625 29.03125 L 0.484375 29.03125 Z M 0.484375 0 " fill-opacity="1" fill-rule="nonzero"/><path fill="#cbc1e6" d="M 0.484375 0 L 29.515625 0 L 29.515625 29.03125 L 0.484375 29.03125 Z M 0.484375 0 " fill-opacity="1" fill-rule="nonzero"/></g><g clip-path="url(#823830e9b5)"><path fill="#ffffff" d="M 12.769531 22.164062 C 12.371094 22.164062 11.96875 22.140625 11.574219 22.089844 C 11.175781 22.042969 10.78125 21.96875 10.394531 21.871094 C 10.003906 21.773438 9.625 21.652344 9.25 21.507812 C 8.878906 21.367188 8.511719 21.199219 8.160156 21.011719 C 7.808594 20.820312 7.464844 20.613281 7.140625 20.382812 C 6.8125 20.152344 6.5 19.902344 6.203125 19.632812 C 5.90625 19.363281 5.625 19.078125 5.363281 18.773438 C 5.101562 18.472656 4.863281 18.152344 4.640625 17.820312 C 4.417969 17.488281 4.214844 17.140625 4.035156 16.785156 C 3.855469 16.425781 3.695312 16.058594 3.5625 15.683594 C 3.425781 15.304688 3.316406 14.921875 3.226562 14.53125 C 3.140625 14.140625 3.078125 13.746094 3.039062 13.347656 C 3 12.949219 2.984375 12.546875 2.992188 12.148438 C 3.003906 11.746094 3.039062 11.347656 3.097656 10.953125 C 3.15625 10.558594 3.238281 10.167969 3.34375 9.78125 C 3.453125 9.394531 3.582031 9.015625 3.734375 8.644531 C 3.886719 8.277344 4.0625 7.917969 4.261719 7.570312 C 4.457031 7.21875 4.675781 6.886719 4.914062 6.5625 C 5.152344 6.242188 5.410156 5.9375 5.6875 5.644531 C 5.964844 5.355469 6.257812 5.085938 6.566406 4.832031 C 6.875 4.578125 7.199219 4.34375 7.539062 4.128906 C 7.875 3.914062 8.226562 3.722656 8.589844 3.550781 C 8.953125 3.378906 9.324219 3.230469 9.703125 3.105469 C 10.082031 2.980469 10.46875 2.878906 10.863281 2.800781 C 11.253906 2.722656 11.652344 2.667969 12.050781 2.640625 C 12.449219 2.609375 12.851562 2.605469 13.25 2.625 C 13.648438 2.644531 14.046875 2.6875 14.441406 2.757812 C 14.835938 2.828125 15.226562 2.917969 15.609375 3.035156 C 15.992188 3.152344 16.367188 3.292969 16.730469 3.453125 C 17.097656 3.617188 17.453125 3.800781 17.796875 4.007812 C 18.140625 4.214844 18.46875 4.441406 18.785156 4.6875 C 19.101562 4.933594 19.398438 5.199219 19.683594 5.480469 C 20.367188 6.164062 20.9375 6.933594 21.390625 7.785156 C 21.847656 8.636719 22.171875 9.539062 22.359375 10.484375 C 22.546875 11.433594 22.59375 12.386719 22.5 13.351562 C 22.40625 14.3125 22.171875 15.238281 21.804688 16.132812 C 21.433594 17.027344 20.941406 17.847656 20.328125 18.59375 C 19.714844 19.339844 19.007812 19.984375 18.203125 20.519531 C 17.398438 21.054688 16.535156 21.464844 15.609375 21.746094 C 14.683594 22.023438 13.738281 22.164062 12.769531 22.164062 Z M 12.769531 4.765625 C 12.476562 4.765625 12.1875 4.78125 11.898438 4.816406 C 11.609375 4.847656 11.320312 4.898438 11.035156 4.960938 C 10.753906 5.027344 10.472656 5.109375 10.199219 5.207031 C 9.921875 5.304688 9.65625 5.417969 9.394531 5.546875 C 9.132812 5.675781 8.878906 5.816406 8.632812 5.976562 C 8.386719 6.132812 8.152344 6.304688 7.925781 6.488281 C 7.699219 6.671875 7.484375 6.871094 7.28125 7.078125 C 7.078125 7.289062 6.886719 7.507812 6.710938 7.742188 C 6.53125 7.972656 6.367188 8.210938 6.21875 8.460938 C 6.066406 8.710938 5.933594 8.96875 5.8125 9.234375 C 5.691406 9.5 5.585938 9.773438 5.496094 10.050781 C 5.40625 10.328125 5.332031 10.609375 5.273438 10.894531 C 5.21875 11.179688 5.175781 11.46875 5.152344 11.757812 C 5.128906 12.050781 5.121094 12.339844 5.128906 12.632812 C 5.140625 12.925781 5.164062 13.214844 5.207031 13.503906 C 5.25 13.792969 5.308594 14.078125 5.382812 14.359375 C 5.460938 14.640625 5.550781 14.917969 5.65625 15.1875 C 5.765625 15.460938 5.886719 15.722656 6.023438 15.980469 C 6.160156 16.238281 6.3125 16.488281 6.476562 16.726562 C 6.644531 16.96875 6.820312 17.195312 7.015625 17.417969 C 7.207031 17.636719 7.410156 17.84375 7.625 18.039062 C 7.84375 18.234375 8.070312 18.417969 8.304688 18.589844 C 8.542969 18.757812 8.789062 18.914062 9.042969 19.058594 C 9.296875 19.199219 9.558594 19.324219 9.828125 19.4375 C 10.097656 19.550781 10.375 19.644531 10.652344 19.726562 C 10.933594 19.804688 11.21875 19.871094 11.507812 19.917969 C 11.792969 19.964844 12.082031 19.996094 12.375 20.011719 C 12.667969 20.023438 12.957031 20.023438 13.25 20.003906 C 13.539062 19.984375 13.828125 19.949219 14.117188 19.898438 C 14.402344 19.84375 14.6875 19.777344 14.964844 19.691406 C 15.242188 19.609375 15.515625 19.507812 15.785156 19.390625 C 16.050781 19.277344 16.3125 19.144531 16.566406 19 C 16.816406 18.851562 17.0625 18.691406 17.296875 18.519531 C 17.53125 18.347656 17.753906 18.160156 17.964844 17.960938 C 18.179688 17.761719 18.378906 17.550781 18.570312 17.328125 C 18.757812 17.105469 18.933594 16.871094 19.09375 16.628906 C 19.257812 16.386719 19.402344 16.136719 19.539062 15.875 C 19.671875 15.617188 19.789062 15.351562 19.890625 15.078125 C 19.992188 14.804688 20.082031 14.527344 20.152344 14.246094 C 20.222656 13.960938 20.277344 13.675781 20.316406 13.386719 C 20.351562 13.097656 20.375 12.804688 20.378906 12.515625 C 20.382812 12.222656 20.371094 11.933594 20.34375 11.640625 C 20.3125 11.351562 20.269531 11.0625 20.207031 10.777344 C 20.144531 10.492188 20.066406 10.214844 19.972656 9.9375 C 19.878906 9.660156 19.769531 9.390625 19.644531 9.128906 C 19.519531 8.863281 19.378906 8.609375 19.226562 8.359375 C 19.070312 8.113281 18.902344 7.875 18.722656 7.648438 C 18.542969 7.417969 18.347656 7.203125 18.140625 6.996094 C 17.429688 6.285156 16.605469 5.734375 15.675781 5.347656 C 14.746094 4.960938 13.777344 4.769531 12.769531 4.765625 Z M 12.769531 4.765625 " fill-opacity="1" fill-rule="nonzero"/></g><g clip-path="url(#c6c4485cf1)"><path fill="#ffffff" d="M 26.625 27.324219 C 26.332031 27.324219 26.078125 27.21875 25.871094 27.007812 L 18.164062 19.304688 C 18.0625 19.203125 17.984375 19.089844 17.929688 18.957031 C 17.875 18.824219 17.847656 18.6875 17.847656 18.546875 C 17.847656 18.402344 17.875 18.265625 17.929688 18.132812 C 17.984375 18.003906 18.0625 17.886719 18.164062 17.785156 C 18.261719 17.683594 18.378906 17.605469 18.511719 17.554688 C 18.644531 17.5 18.78125 17.472656 18.921875 17.472656 C 19.066406 17.472656 19.203125 17.5 19.332031 17.554688 C 19.464844 17.605469 19.582031 17.683594 19.683594 17.785156 L 27.382812 25.492188 C 27.535156 25.644531 27.632812 25.828125 27.675781 26.042969 C 27.71875 26.253906 27.699219 26.460938 27.613281 26.660156 C 27.53125 26.859375 27.402344 27.019531 27.222656 27.140625 C 27.042969 27.261719 26.84375 27.324219 26.625 27.324219 Z M 26.625 27.324219 " fill-opacity="1" fill-rule="nonzero"/></g></svg>