<svg xmlns="http://www.w3.org/2000/svg" xmlns:xlink="http://www.w3.org/1999/xlink" width="1920" zoomAndPan="magnify" viewBox="0 0 1440 809.999993" height="1080" preserveAspectRatio="xMidYMid meet" version="1.0"><defs><clipPath id="c7d8ab459a"><path d="M 0.269531 457 L 462.269531 457 L 462.269531 809.988281 L 0.269531 809.988281 Z M 0.269531 457 " clip-rule="nonzero"/></clipPath><clipPath id="89adddb9d9"><path d="M 891 0 L 1439.78125 0 L 1439.78125 348.496094 L 891 348.496094 Z M 891 0 " clip-rule="nonzero"/></clipPath></defs><g clip-path="url(#c7d8ab459a)"><path fill="#f89a83" d="M 0.0351562 807.644531 L 0.0351562 688.210938 C 0.0351562 560.710938 103.714844 457.097656 231.15625 457.097656 C 358.601562 457.097656 462.269531 560.769531 462.269531 688.210938 L 462.269531 807.644531 C 462.269531 807.941406 462.210938 808.230469 462.097656 808.507812 C 461.984375 808.78125 461.820312 809.027344 461.609375 809.238281 C 461.398438 809.449219 461.152344 809.613281 460.875 809.726562 C 460.601562 809.84375 460.3125 809.898438 460.011719 809.898438 C 459.714844 809.898438 459.425781 809.84375 459.148438 809.726562 C 458.871094 809.613281 458.628906 809.449219 458.417969 809.238281 C 458.207031 809.027344 458.042969 808.78125 457.929688 808.507812 C 457.8125 808.230469 457.757812 807.941406 457.757812 807.644531 L 457.757812 688.210938 C 457.757812 563.261719 356.105469 461.613281 231.15625 461.613281 C 106.207031 461.613281 4.546875 563.261719 4.546875 688.210938 L 4.546875 807.644531 C 4.546875 807.941406 4.488281 808.230469 4.375 808.507812 C 4.261719 808.78125 4.097656 809.027344 3.886719 809.238281 C 3.675781 809.449219 3.429688 809.613281 3.152344 809.726562 C 2.878906 809.84375 2.589844 809.898438 2.289062 809.898438 C 1.992188 809.898438 1.703125 809.84375 1.425781 809.726562 C 1.152344 809.613281 0.90625 809.449219 0.695312 809.238281 C 0.484375 809.027344 0.320312 808.78125 0.207031 808.507812 C 0.0898438 808.230469 0.0351562 807.941406 0.0351562 807.644531 Z M 231.15625 492.84375 C 123.066406 492.84375 35.125 580.785156 35.125 688.878906 L 35.125 807.542969 C 35.125 807.839844 35.183594 808.128906 35.296875 808.40625 C 35.410156 808.679688 35.574219 808.925781 35.785156 809.136719 C 35.996094 809.347656 36.242188 809.511719 36.515625 809.625 C 36.792969 809.742188 37.082031 809.796875 37.382812 809.796875 C 37.679688 809.796875 37.96875 809.742188 38.246094 809.625 C 38.519531 809.511719 38.765625 809.347656 38.976562 809.136719 C 39.1875 808.925781 39.351562 808.679688 39.464844 808.40625 C 39.582031 808.128906 39.636719 807.839844 39.636719 807.542969 L 39.636719 688.855469 C 39.636719 583.246094 125.546875 497.335938 231.15625 497.335938 C 336.765625 497.335938 422.664062 583.246094 422.664062 688.855469 L 422.664062 807.542969 C 422.664062 807.839844 422.722656 808.128906 422.835938 808.40625 C 422.953125 808.679688 423.113281 808.925781 423.328125 809.136719 C 423.539062 809.347656 423.78125 809.511719 424.058594 809.625 C 424.335938 809.742188 424.625 809.796875 424.921875 809.796875 C 425.222656 809.796875 425.507812 809.742188 425.785156 809.625 C 426.0625 809.511719 426.304688 809.347656 426.519531 809.136719 C 426.730469 808.925781 426.894531 808.679688 427.007812 808.40625 C 427.121094 808.128906 427.179688 807.839844 427.179688 807.542969 L 427.179688 688.855469 C 427.179688 580.761719 339.285156 492.84375 231.15625 492.84375 Z M 231.15625 528.566406 C 142.402344 528.566406 70.203125 600.777344 70.203125 689.507812 L 70.203125 807.429688 C 70.203125 807.726562 70.261719 808.015625 70.375 808.292969 C 70.488281 808.570312 70.652344 808.8125 70.863281 809.023438 C 71.078125 809.234375 71.320312 809.398438 71.597656 809.511719 C 71.875 809.628906 72.160156 809.683594 72.460938 809.683594 C 72.757812 809.683594 73.046875 809.628906 73.324219 809.511719 C 73.601562 809.398438 73.84375 809.234375 74.054688 809.023438 C 74.265625 808.8125 74.429688 808.570312 74.546875 808.292969 C 74.660156 808.015625 74.71875 807.726562 74.71875 807.429688 L 74.71875 689.484375 C 74.71875 603.226562 144.898438 533.058594 231.15625 533.058594 C 317.417969 533.058594 387.585938 603.226562 387.585938 689.484375 L 387.585938 807.429688 C 387.585938 807.726562 387.644531 808.015625 387.757812 808.292969 C 387.871094 808.570312 388.035156 808.8125 388.246094 809.023438 C 388.460938 809.234375 388.703125 809.398438 388.980469 809.511719 C 389.257812 809.628906 389.542969 809.683594 389.84375 809.683594 C 390.140625 809.683594 390.429688 809.628906 390.707031 809.511719 C 390.984375 809.398438 391.226562 809.234375 391.4375 809.023438 C 391.652344 808.8125 391.8125 808.570312 391.929688 808.292969 C 392.042969 808.015625 392.101562 807.726562 392.101562 807.429688 L 392.101562 689.484375 C 392.101562 600.746094 319.898438 528.542969 231.15625 528.542969 Z M 231.15625 564.289062 C 229.097656 564.289062 227.039062 564.34375 224.984375 564.445312 C 222.929688 564.550781 220.875 564.703125 218.828125 564.90625 C 216.777344 565.109375 214.734375 565.363281 212.699219 565.667969 C 210.660156 565.972656 208.632812 566.324219 206.613281 566.730469 C 204.59375 567.132812 202.585938 567.585938 200.589844 568.085938 C 198.59375 568.589844 196.609375 569.136719 194.640625 569.738281 C 192.671875 570.335938 190.714844 570.984375 188.777344 571.679688 C 186.839844 572.371094 184.917969 573.113281 183.019531 573.902344 C 181.117188 574.691406 179.234375 575.527344 177.375 576.410156 C 175.511719 577.289062 173.675781 578.214844 171.859375 579.1875 C 170.042969 580.160156 168.253906 581.171875 166.488281 582.234375 C 164.722656 583.292969 162.980469 584.394531 161.269531 585.539062 C 159.558594 586.679688 157.875 587.867188 156.222656 589.09375 C 154.570312 590.320312 152.945312 591.585938 151.355469 592.894531 C 149.761719 594.199219 148.203125 595.542969 146.679688 596.925781 C 145.152344 598.308594 143.664062 599.730469 142.207031 601.183594 C 140.75 602.640625 139.332031 604.132812 137.949219 605.65625 C 136.566406 607.183594 135.21875 608.742188 133.914062 610.332031 C 132.605469 611.921875 131.339844 613.546875 130.113281 615.199219 C 128.886719 616.851562 127.699219 618.535156 126.554688 620.246094 C 125.410156 621.957031 124.308594 623.695312 123.25 625.460938 C 122.191406 627.226562 121.175781 629.019531 120.203125 630.832031 C 119.230469 632.648438 118.304688 634.488281 117.421875 636.347656 C 116.542969 638.207031 115.707031 640.089844 114.917969 641.992188 C 114.128906 643.894531 113.386719 645.8125 112.691406 647.75 C 111.996094 649.691406 111.347656 651.644531 110.75 653.613281 C 110.148438 655.582031 109.597656 657.566406 109.097656 659.5625 C 108.59375 661.558594 108.140625 663.566406 107.738281 665.585938 C 107.335938 667.605469 106.980469 669.632812 106.675781 671.671875 C 106.371094 673.707031 106.117188 675.75 105.914062 677.796875 C 105.710938 679.847656 105.554688 681.898438 105.453125 683.957031 C 105.351562 686.011719 105.296875 688.070312 105.292969 690.128906 L 105.292969 807.328125 C 105.292969 807.625 105.351562 807.914062 105.464844 808.191406 C 105.582031 808.46875 105.742188 808.710938 105.953125 808.921875 C 106.167969 809.132812 106.410156 809.296875 106.6875 809.410156 C 106.964844 809.527344 107.25 809.582031 107.550781 809.582031 C 107.851562 809.582031 108.136719 809.527344 108.414062 809.410156 C 108.691406 809.296875 108.933594 809.132812 109.144531 808.921875 C 109.359375 808.710938 109.519531 808.46875 109.636719 808.191406 C 109.75 807.914062 109.808594 807.625 109.808594 807.328125 L 109.808594 690.128906 C 109.789062 688.132812 109.816406 686.132812 109.898438 684.136719 C 109.976562 682.140625 110.105469 680.148438 110.285156 678.15625 C 110.460938 676.167969 110.6875 674.183594 110.964844 672.203125 C 111.238281 670.222656 111.566406 668.253906 111.9375 666.289062 C 112.3125 664.328125 112.734375 662.375 113.203125 660.433594 C 113.671875 658.488281 114.191406 656.5625 114.753906 654.644531 C 115.320312 652.726562 115.929688 650.824219 116.589844 648.941406 C 117.25 647.054688 117.953125 645.183594 118.707031 643.332031 C 119.457031 641.480469 120.253906 639.648438 121.09375 637.835938 C 121.9375 636.023438 122.824219 634.234375 123.753906 632.464844 C 124.683594 630.699219 125.65625 628.953125 126.671875 627.234375 C 127.691406 625.511719 128.75 623.816406 129.847656 622.148438 C 130.949219 620.480469 132.089844 618.84375 133.269531 617.230469 C 134.453125 615.617188 135.671875 614.035156 136.929688 612.484375 C 138.191406 610.933594 139.488281 609.414062 140.820312 607.925781 C 142.15625 606.441406 143.527344 604.984375 144.929688 603.566406 C 146.335938 602.148438 147.777344 600.761719 149.253906 599.414062 C 150.726562 598.066406 152.234375 596.753906 153.773438 595.480469 C 155.3125 594.207031 156.882812 592.96875 158.480469 591.773438 C 160.082031 590.578125 161.710938 589.421875 163.367188 588.304688 C 165.027344 587.1875 166.710938 586.113281 168.421875 585.082031 C 170.132812 584.046875 171.867188 583.058594 173.625 582.109375 C 175.386719 581.164062 177.167969 580.261719 178.96875 579.402344 C 180.773438 578.542969 182.597656 577.726562 184.441406 576.957031 C 186.289062 576.191406 188.148438 575.464844 190.027344 574.789062 C 191.910156 574.113281 193.804688 573.480469 195.714844 572.898438 C 197.625 572.316406 199.550781 571.777344 201.488281 571.289062 C 203.425781 570.800781 205.375 570.363281 207.335938 569.96875 C 209.292969 569.578125 211.261719 569.234375 213.238281 568.9375 C 215.214844 568.644531 217.195312 568.398438 219.183594 568.199219 C 221.171875 568.003906 223.164062 567.855469 225.160156 567.757812 C 227.15625 567.660156 229.152344 567.609375 231.152344 567.609375 C 233.148438 567.609375 235.148438 567.660156 237.140625 567.757812 C 239.136719 567.855469 241.128906 568.003906 243.117188 568.199219 C 245.105469 568.398438 247.089844 568.644531 249.066406 568.9375 C 251.042969 569.234375 253.011719 569.578125 254.96875 569.96875 C 256.929688 570.363281 258.878906 570.800781 260.816406 571.289062 C 262.753906 571.777344 264.675781 572.316406 266.585938 572.898438 C 268.5 573.480469 270.394531 574.113281 272.273438 574.789062 C 274.152344 575.464844 276.015625 576.191406 277.859375 576.957031 C 279.703125 577.726562 281.527344 578.542969 283.332031 579.402344 C 285.136719 580.261719 286.917969 581.164062 288.679688 582.109375 C 290.4375 583.058594 292.171875 584.046875 293.882812 585.082031 C 295.59375 586.113281 297.277344 587.1875 298.933594 588.304688 C 300.59375 589.421875 302.222656 590.578125 303.820312 591.773438 C 305.421875 592.96875 306.992188 594.207031 308.53125 595.480469 C 310.070312 596.753906 311.578125 598.066406 313.050781 599.414062 C 314.523438 600.761719 315.964844 602.148438 317.371094 603.566406 C 318.777344 604.984375 320.148438 606.441406 321.480469 607.925781 C 322.816406 609.414062 324.113281 610.933594 325.371094 612.484375 C 326.632812 614.035156 327.851562 615.617188 329.03125 617.230469 C 330.214844 618.84375 331.355469 620.480469 332.453125 622.148438 C 333.554688 623.816406 334.613281 625.511719 335.628906 627.234375 C 336.644531 628.953125 337.621094 630.699219 338.550781 632.464844 C 339.480469 634.234375 340.367188 636.023438 341.207031 637.835938 C 342.050781 639.648438 342.847656 641.480469 343.597656 643.332031 C 344.347656 645.183594 345.054688 647.054688 345.710938 648.941406 C 346.371094 650.824219 346.984375 652.726562 347.546875 654.644531 C 348.113281 656.5625 348.632812 658.488281 349.101562 660.433594 C 349.570312 662.375 349.992188 664.328125 350.367188 666.289062 C 350.738281 668.253906 351.0625 670.222656 351.339844 672.203125 C 351.613281 674.183594 351.84375 676.167969 352.019531 678.15625 C 352.199219 680.148438 352.328125 682.140625 352.40625 684.136719 C 352.484375 686.132812 352.515625 688.132812 352.496094 690.128906 L 352.496094 807.328125 C 352.496094 807.625 352.554688 807.914062 352.667969 808.191406 C 352.78125 808.46875 352.945312 808.710938 353.15625 808.921875 C 353.367188 809.132812 353.613281 809.296875 353.890625 809.410156 C 354.164062 809.527344 354.453125 809.582031 354.753906 809.582031 C 355.050781 809.582031 355.339844 809.527344 355.617188 809.410156 C 355.894531 809.296875 356.136719 809.132812 356.347656 808.921875 C 356.558594 808.710938 356.722656 808.46875 356.835938 808.191406 C 356.953125 807.914062 357.007812 807.625 357.007812 807.328125 L 357.007812 690.128906 C 357.007812 688.070312 356.953125 686.011719 356.851562 683.957031 C 356.75 681.898438 356.59375 679.847656 356.390625 677.796875 C 356.1875 675.75 355.933594 673.707031 355.628906 671.667969 C 355.324219 669.632812 354.972656 667.605469 354.570312 665.585938 C 354.164062 663.566406 353.710938 661.558594 353.210938 659.5625 C 352.710938 657.5625 352.160156 655.582031 351.558594 653.609375 C 350.960938 651.640625 350.3125 649.6875 349.617188 647.746094 C 348.925781 645.808594 348.183594 643.890625 347.394531 641.988281 C 346.605469 640.085938 345.769531 638.203125 344.886719 636.34375 C 344.007812 634.480469 343.082031 632.644531 342.109375 630.828125 C 341.136719 629.011719 340.121094 627.222656 339.0625 625.457031 C 338.003906 623.691406 336.902344 621.949219 335.757812 620.238281 C 334.613281 618.527344 333.429688 616.84375 332.203125 615.191406 C 330.972656 613.535156 329.707031 611.914062 328.402344 610.324219 C 327.09375 608.730469 325.75 607.171875 324.367188 605.648438 C 322.984375 604.121094 321.566406 602.628906 320.109375 601.175781 C 318.652344 599.71875 317.164062 598.296875 315.636719 596.914062 C 314.113281 595.53125 312.554688 594.1875 310.960938 592.882812 C 309.371094 591.574219 307.746094 590.308594 306.09375 589.082031 C 304.441406 587.855469 302.757812 586.667969 301.046875 585.523438 C 299.335938 584.378906 297.59375 583.277344 295.828125 582.21875 C 294.0625 581.160156 292.273438 580.144531 290.457031 579.171875 C 288.640625 578.199219 286.804688 577.273438 284.941406 576.390625 C 283.082031 575.511719 281.199219 574.675781 279.296875 573.886719 C 277.398438 573.097656 275.476562 572.355469 273.539062 571.660156 C 271.601562 570.964844 269.644531 570.316406 267.675781 569.71875 C 265.707031 569.121094 263.722656 568.570312 261.726562 568.066406 C 259.726562 567.566406 257.71875 567.113281 255.699219 566.707031 C 253.683594 566.304688 251.652344 565.953125 249.617188 565.648438 C 247.582031 565.34375 245.539062 565.089844 243.488281 564.886719 C 241.441406 564.679688 239.386719 564.527344 237.332031 564.425781 C 235.273438 564.320312 233.214844 564.269531 231.15625 564.265625 Z M 231.15625 600.023438 C 229.671875 600.023438 228.1875 600.0625 226.703125 600.136719 C 225.222656 600.210938 223.742188 600.320312 222.261719 600.46875 C 220.785156 600.617188 219.3125 600.796875 217.84375 601.019531 C 216.375 601.238281 214.910156 601.492188 213.457031 601.785156 C 212 602.074219 210.550781 602.402344 209.109375 602.761719 C 207.671875 603.125 206.238281 603.523438 204.820312 603.953125 C 203.398438 604.386719 201.988281 604.851562 200.589844 605.355469 C 199.191406 605.855469 197.808594 606.390625 196.4375 606.960938 C 195.0625 607.527344 193.707031 608.128906 192.363281 608.765625 C 191.023438 609.402344 189.695312 610.070312 188.386719 610.769531 C 187.078125 611.472656 185.785156 612.203125 184.511719 612.96875 C 183.238281 613.730469 181.984375 614.527344 180.75 615.351562 C 179.515625 616.175781 178.300781 617.03125 177.109375 617.917969 C 175.917969 618.800781 174.746094 619.714844 173.597656 620.65625 C 172.449219 621.601562 171.328125 622.570312 170.226562 623.566406 C 169.125 624.566406 168.050781 625.589844 167 626.640625 C 165.949219 627.6875 164.925781 628.765625 163.929688 629.863281 C 162.933594 630.964844 161.960938 632.089844 161.019531 633.238281 C 160.078125 634.382812 159.164062 635.554688 158.28125 636.746094 C 157.394531 637.941406 156.539062 639.152344 155.714844 640.386719 C 154.886719 641.625 154.09375 642.878906 153.328125 644.152344 C 152.566406 645.425781 151.832031 646.714844 151.132812 648.023438 C 150.433594 649.335938 149.765625 650.660156 149.128906 652.003906 C 148.492188 653.34375 147.890625 654.703125 147.320312 656.074219 C 146.753906 657.445312 146.21875 658.832031 145.714844 660.226562 C 145.214844 661.625 144.75 663.035156 144.316406 664.457031 C 143.882812 665.878906 143.488281 667.308594 143.125 668.75 C 142.761719 670.1875 142.4375 671.636719 142.144531 673.09375 C 141.855469 674.550781 141.597656 676.011719 141.378906 677.480469 C 141.160156 678.949219 140.976562 680.421875 140.832031 681.902344 C 140.683594 683.378906 140.574219 684.859375 140.5 686.34375 C 140.425781 687.824219 140.386719 689.308594 140.382812 690.796875 L 140.382812 807.226562 C 140.382812 807.523438 140.441406 807.8125 140.554688 808.089844 C 140.671875 808.367188 140.835938 808.609375 141.046875 808.820312 C 141.257812 809.03125 141.5 809.195312 141.777344 809.308594 C 142.054688 809.425781 142.34375 809.480469 142.640625 809.480469 C 142.941406 809.480469 143.226562 809.425781 143.503906 809.308594 C 143.78125 809.195312 144.023438 809.03125 144.238281 808.820312 C 144.449219 808.609375 144.613281 808.367188 144.726562 808.089844 C 144.839844 807.8125 144.898438 807.523438 144.898438 807.226562 L 144.898438 690.773438 C 144.898438 689.359375 144.933594 687.949219 145 686.539062 C 145.070312 685.128906 145.175781 683.722656 145.3125 682.316406 C 145.453125 680.914062 145.625 679.511719 145.832031 678.117188 C 146.039062 676.71875 146.28125 675.328125 146.554688 673.945312 C 146.832031 672.558594 147.140625 671.183594 147.484375 669.8125 C 147.824219 668.445312 148.203125 667.082031 148.613281 665.734375 C 149.023438 664.382812 149.464844 663.042969 149.941406 661.710938 C 150.414062 660.382812 150.921875 659.066406 151.464844 657.761719 C 152.003906 656.457031 152.574219 655.167969 153.179688 653.890625 C 153.785156 652.617188 154.417969 651.355469 155.082031 650.109375 C 155.75 648.863281 156.445312 647.636719 157.171875 646.425781 C 157.894531 645.214844 158.652344 644.023438 159.433594 642.847656 C 160.21875 641.675781 161.03125 640.523438 161.875 639.386719 C 162.714844 638.253906 163.582031 637.140625 164.476562 636.050781 C 165.375 634.957031 166.296875 633.890625 167.242188 632.84375 C 168.191406 631.796875 169.164062 630.777344 170.164062 629.777344 C 171.160156 628.78125 172.183594 627.804688 173.230469 626.859375 C 174.273438 625.910156 175.34375 624.988281 176.433594 624.09375 C 177.527344 623.199219 178.640625 622.328125 179.773438 621.488281 C 180.90625 620.648438 182.058594 619.835938 183.234375 619.050781 C 184.40625 618.265625 185.601562 617.511719 186.8125 616.785156 C 188.023438 616.058594 189.25 615.363281 190.496094 614.699219 C 191.738281 614.03125 193 613.398438 194.277344 612.792969 C 195.554688 612.191406 196.84375 611.621094 198.148438 611.078125 C 199.453125 610.539062 200.769531 610.03125 202.097656 609.554688 C 203.425781 609.078125 204.765625 608.636719 206.117188 608.226562 C 207.46875 607.816406 208.828125 607.441406 210.199219 607.097656 C 211.566406 606.753906 212.945312 606.445312 214.328125 606.171875 C 215.714844 605.894531 217.105469 605.652344 218.5 605.445312 C 219.898438 605.238281 221.296875 605.066406 222.703125 604.929688 C 224.105469 604.789062 225.515625 604.6875 226.925781 604.617188 C 228.335938 604.546875 229.746094 604.511719 231.15625 604.511719 C 232.570312 604.511719 233.980469 604.546875 235.390625 604.617188 C 236.800781 604.6875 238.207031 604.789062 239.613281 604.929688 C 241.015625 605.066406 242.417969 605.238281 243.8125 605.445312 C 245.210938 605.652344 246.601562 605.894531 247.984375 606.171875 C 249.371094 606.445312 250.746094 606.753906 252.117188 607.097656 C 253.484375 607.441406 254.847656 607.816406 256.195312 608.226562 C 257.546875 608.636719 258.886719 609.078125 260.21875 609.554688 C 261.546875 610.03125 262.863281 610.539062 264.167969 611.078125 C 265.472656 611.621094 266.761719 612.191406 268.039062 612.792969 C 269.3125 613.398438 270.574219 614.03125 271.820312 614.699219 C 273.066406 615.363281 274.292969 616.058594 275.503906 616.785156 C 276.714844 617.511719 277.90625 618.265625 279.082031 619.050781 C 280.253906 619.835938 281.40625 620.648438 282.542969 621.488281 C 283.675781 622.328125 284.789062 623.199219 285.878906 624.09375 C 286.972656 624.988281 288.039062 625.910156 289.085938 626.859375 C 290.132812 627.804688 291.152344 628.78125 292.152344 629.777344 C 293.148438 630.777344 294.125 631.796875 295.070312 632.84375 C 296.019531 633.890625 296.941406 634.957031 297.835938 636.050781 C 298.730469 637.140625 299.601562 638.253906 300.441406 639.386719 C 301.28125 640.523438 302.09375 641.675781 302.878906 642.847656 C 303.664062 644.023438 304.417969 645.214844 305.144531 646.425781 C 305.871094 647.636719 306.566406 648.863281 307.230469 650.109375 C 307.898438 651.355469 308.53125 652.617188 309.136719 653.890625 C 309.738281 655.167969 310.308594 656.457031 310.851562 657.761719 C 311.390625 659.066406 311.898438 660.382812 312.375 661.710938 C 312.851562 663.042969 313.292969 664.382812 313.703125 665.734375 C 314.113281 667.082031 314.488281 668.445312 314.832031 669.8125 C 315.175781 671.183594 315.484375 672.558594 315.757812 673.945312 C 316.035156 675.328125 316.277344 676.71875 316.484375 678.117188 C 316.691406 679.511719 316.863281 680.914062 317 682.316406 C 317.140625 683.722656 317.242188 685.128906 317.3125 686.539062 C 317.382812 687.949219 317.417969 689.359375 317.417969 690.773438 L 317.417969 807.226562 C 317.417969 807.523438 317.472656 807.8125 317.589844 808.089844 C 317.703125 808.367188 317.867188 808.609375 318.078125 808.820312 C 318.289062 809.03125 318.535156 809.195312 318.808594 809.308594 C 319.085938 809.425781 319.375 809.480469 319.671875 809.480469 C 319.972656 809.480469 320.261719 809.425781 320.535156 809.308594 C 320.8125 809.195312 321.058594 809.03125 321.269531 808.820312 C 321.480469 808.609375 321.644531 808.367188 321.757812 808.089844 C 321.871094 807.8125 321.929688 807.523438 321.929688 807.226562 L 321.929688 690.773438 C 321.929688 689.289062 321.890625 687.804688 321.8125 686.320312 C 321.738281 684.839844 321.628906 683.359375 321.480469 681.878906 C 321.332031 680.402344 321.148438 678.929688 320.929688 677.460938 C 320.710938 675.992188 320.453125 674.53125 320.164062 673.074219 C 319.871094 671.621094 319.546875 670.171875 319.183594 668.730469 C 318.820312 667.292969 318.421875 665.863281 317.992188 664.441406 C 317.558594 663.019531 317.089844 661.613281 316.589844 660.214844 C 316.089844 658.816406 315.554688 657.433594 314.984375 656.0625 C 314.414062 654.691406 313.8125 653.332031 313.175781 651.992188 C 312.539062 650.648438 311.871094 649.324219 311.171875 648.015625 C 310.46875 646.707031 309.738281 645.414062 308.972656 644.144531 C 308.210938 642.871094 307.414062 641.617188 306.589844 640.382812 C 305.761719 639.148438 304.910156 637.933594 304.023438 636.742188 C 303.136719 635.550781 302.226562 634.378906 301.28125 633.234375 C 300.339844 632.085938 299.371094 630.960938 298.371094 629.863281 C 297.375 628.761719 296.351562 627.6875 295.300781 626.636719 C 294.25 625.589844 293.175781 624.566406 292.078125 623.566406 C 290.976562 622.570312 289.851562 621.601562 288.703125 620.660156 C 287.554688 619.71875 286.386719 618.804688 285.195312 617.921875 C 284 617.035156 282.789062 616.179688 281.554688 615.355469 C 280.320312 614.53125 279.066406 613.734375 277.792969 612.972656 C 276.519531 612.210938 275.226562 611.476562 273.917969 610.777344 C 272.609375 610.078125 271.28125 609.410156 269.941406 608.773438 C 268.597656 608.136719 267.242188 607.535156 265.871094 606.96875 C 264.5 606.398438 263.113281 605.863281 261.71875 605.363281 C 260.320312 604.863281 258.910156 604.394531 257.488281 603.964844 C 256.070312 603.53125 254.640625 603.132812 253.199219 602.773438 C 251.757812 602.410156 250.3125 602.085938 248.855469 601.792969 C 247.398438 601.503906 245.9375 601.246094 244.46875 601.027344 C 243 600.808594 241.527344 600.625 240.050781 600.480469 C 238.570312 600.332031 237.089844 600.222656 235.609375 600.148438 C 234.125 600.074219 232.640625 600.035156 231.15625 600.035156 Z M 231.15625 635.746094 C 229.335938 635.746094 227.515625 635.835938 225.699219 636.019531 C 223.886719 636.199219 222.085938 636.46875 220.296875 636.824219 C 218.507812 637.179688 216.742188 637.625 215 638.15625 C 213.253906 638.683594 211.539062 639.300781 209.855469 640 C 208.171875 640.695312 206.527344 641.476562 204.917969 642.335938 C 203.308594 643.195312 201.75 644.132812 200.234375 645.144531 C 198.714844 646.160156 197.253906 647.242188 195.84375 648.402344 C 194.433594 649.558594 193.085938 650.78125 191.796875 652.070312 C 190.507812 653.359375 189.285156 654.707031 188.128906 656.117188 C 186.96875 657.527344 185.882812 658.988281 184.871094 660.503906 C 183.859375 662.019531 182.921875 663.582031 182.058594 665.1875 C 181.199219 666.796875 180.421875 668.441406 179.722656 670.125 C 179.023438 671.808594 178.40625 673.523438 177.878906 675.269531 C 177.347656 677.011719 176.902344 678.777344 176.546875 680.566406 C 176.1875 682.355469 175.917969 684.15625 175.738281 685.96875 C 175.558594 687.785156 175.464844 689.605469 175.464844 691.425781 L 175.464844 807.125 C 175.464844 807.421875 175.519531 807.710938 175.636719 807.988281 C 175.75 808.265625 175.914062 808.507812 176.125 808.71875 C 176.335938 808.929688 176.582031 809.09375 176.855469 809.207031 C 177.132812 809.324219 177.421875 809.378906 177.71875 809.378906 C 178.019531 809.378906 178.308594 809.324219 178.585938 809.207031 C 178.859375 809.09375 179.105469 808.929688 179.316406 808.71875 C 179.527344 808.507812 179.691406 808.265625 179.804688 807.988281 C 179.917969 807.710938 179.976562 807.421875 179.976562 807.125 L 179.976562 691.425781 C 180 689.765625 180.105469 688.113281 180.292969 686.460938 C 180.476562 684.8125 180.742188 683.175781 181.089844 681.550781 C 181.433594 679.925781 181.855469 678.324219 182.359375 676.742188 C 182.859375 675.15625 183.4375 673.601562 184.089844 672.074219 C 184.742188 670.550781 185.464844 669.058594 186.261719 667.601562 C 187.0625 666.144531 187.925781 664.730469 188.863281 663.359375 C 189.796875 661.988281 190.796875 660.664062 191.863281 659.390625 C 192.925781 658.113281 194.050781 656.894531 195.230469 655.730469 C 196.414062 654.566406 197.652344 653.460938 198.941406 652.414062 C 200.230469 651.371094 201.570312 650.390625 202.957031 649.476562 C 204.339844 648.558594 205.765625 647.714844 207.234375 646.9375 C 208.703125 646.164062 210.207031 645.460938 211.742188 644.832031 C 213.277344 644.203125 214.839844 643.648438 216.429688 643.171875 C 218.023438 642.691406 219.632812 642.292969 221.261719 641.972656 C 222.890625 641.652344 224.53125 641.410156 226.183594 641.25 C 227.835938 641.089844 229.492188 641.007812 231.152344 641.007812 C 232.8125 641.007812 234.46875 641.089844 236.121094 641.25 C 237.773438 641.410156 239.414062 641.652344 241.042969 641.972656 C 242.671875 642.292969 244.28125 642.691406 245.871094 643.171875 C 247.460938 643.648438 249.023438 644.203125 250.5625 644.832031 C 252.097656 645.460938 253.601562 646.164062 255.066406 646.9375 C 256.535156 647.714844 257.960938 648.558594 259.347656 649.476562 C 260.734375 650.390625 262.070312 651.371094 263.363281 652.414062 C 264.652344 653.460938 265.890625 654.566406 267.070312 655.730469 C 268.253906 656.894531 269.378906 658.113281 270.441406 659.390625 C 271.503906 660.664062 272.503906 661.988281 273.441406 663.359375 C 274.375 664.730469 275.242188 666.144531 276.039062 667.601562 C 276.835938 669.058594 277.5625 670.550781 278.214844 672.074219 C 278.867188 673.601562 279.445312 675.15625 279.945312 676.742188 C 280.445312 678.324219 280.871094 679.925781 281.214844 681.550781 C 281.558594 683.175781 281.824219 684.8125 282.011719 686.460938 C 282.195312 688.113281 282.300781 689.765625 282.328125 691.425781 L 282.328125 807.125 C 282.328125 807.421875 282.382812 807.710938 282.5 807.988281 C 282.613281 808.265625 282.777344 808.507812 282.988281 808.71875 C 283.199219 808.929688 283.441406 809.09375 283.71875 809.207031 C 283.996094 809.324219 284.285156 809.378906 284.582031 809.378906 C 284.882812 809.378906 285.171875 809.324219 285.445312 809.207031 C 285.722656 809.09375 285.96875 808.929688 286.179688 808.71875 C 286.390625 808.507812 286.554688 808.265625 286.667969 807.988281 C 286.78125 807.710938 286.839844 807.421875 286.839844 807.125 L 286.839844 691.425781 C 286.839844 689.601562 286.746094 687.785156 286.566406 685.96875 C 286.386719 684.15625 286.117188 682.355469 285.761719 680.566406 C 285.40625 678.777344 284.960938 677.011719 284.433594 675.265625 C 283.902344 673.519531 283.289062 671.804688 282.589844 670.121094 C 281.890625 668.4375 281.113281 666.792969 280.253906 665.183594 C 279.390625 663.574219 278.457031 662.011719 277.441406 660.496094 C 276.429688 658.980469 275.34375 657.519531 274.1875 656.109375 C 273.03125 654.699219 271.808594 653.347656 270.519531 652.058594 C 269.230469 650.769531 267.878906 649.546875 266.472656 648.386719 C 265.0625 647.230469 263.597656 646.144531 262.082031 645.132812 C 260.566406 644.117188 259.007812 643.179688 257.398438 642.320312 C 255.789062 641.460938 254.144531 640.679688 252.460938 639.980469 C 250.777344 639.28125 249.0625 638.667969 247.316406 638.136719 C 245.574219 637.605469 243.804688 637.160156 242.019531 636.804688 C 240.230469 636.445312 238.429688 636.175781 236.613281 635.996094 C 234.800781 635.816406 232.980469 635.722656 231.15625 635.722656 Z M 231.15625 635.746094 " fill-opacity="1" fill-rule="nonzero"/></g><g clip-path="url(#89adddb9d9)"><path fill="#9c8dce" d="M 1439.289062 2.386719 C 1439.289062 2.710938 1439.226562 3.023438 1439.105469 3.324219 C 1438.980469 3.621094 1438.804688 3.886719 1438.574219 4.117188 C 1438.34375 4.347656 1438.082031 4.523438 1437.78125 4.648438 C 1437.480469 4.769531 1437.167969 4.832031 1436.84375 4.832031 L 1065.769531 4.832031 C 972.359375 4.832031 896.375 80.816406 896.375 174.210938 C 896.375 267.609375 972.359375 343.605469 1065.769531 343.605469 L 1436.84375 343.605469 C 1437.167969 343.605469 1437.480469 343.664062 1437.78125 343.789062 C 1438.082031 343.914062 1438.34375 344.089844 1438.574219 344.320312 C 1438.804688 344.550781 1438.980469 344.8125 1439.105469 345.113281 C 1439.226562 345.414062 1439.289062 345.726562 1439.289062 346.050781 C 1439.289062 346.375 1439.226562 346.6875 1439.105469 346.984375 C 1438.980469 347.285156 1438.804688 347.550781 1438.574219 347.777344 C 1438.34375 348.007812 1438.082031 348.183594 1437.78125 348.308594 C 1437.480469 348.433594 1437.167969 348.496094 1436.84375 348.496094 L 1065.769531 348.496094 C 969.667969 348.496094 891.484375 270.308594 891.484375 174.210938 C 891.484375 78.113281 969.667969 -0.0585938 1065.769531 -0.0585938 L 1436.84375 -0.0585938 C 1437.167969 -0.0585938 1437.480469 0.00390625 1437.78125 0.128906 C 1438.082031 0.253906 1438.34375 0.429688 1438.574219 0.65625 C 1438.804688 0.886719 1438.980469 1.152344 1439.105469 1.453125 C 1439.226562 1.75 1439.289062 2.0625 1439.289062 2.386719 Z M 1436.769531 26.28125 L 1066.269531 26.28125 C 1063.847656 26.28125 1061.429688 26.34375 1059.011719 26.460938 C 1056.59375 26.582031 1054.179688 26.761719 1051.773438 27 C 1049.363281 27.238281 1046.960938 27.535156 1044.566406 27.890625 C 1042.171875 28.246094 1039.789062 28.664062 1037.414062 29.136719 C 1035.039062 29.609375 1032.679688 30.140625 1030.332031 30.730469 C 1027.984375 31.320312 1025.652344 31.964844 1023.335938 32.667969 C 1021.019531 33.371094 1018.722656 34.132812 1016.441406 34.949219 C 1014.164062 35.765625 1011.90625 36.636719 1009.671875 37.5625 C 1007.433594 38.492188 1005.222656 39.472656 1003.035156 40.507812 C 1000.847656 41.542969 998.6875 42.632812 996.550781 43.773438 C 994.417969 44.917969 992.3125 46.109375 990.234375 47.355469 C 988.160156 48.601562 986.117188 49.894531 984.105469 51.242188 C 982.089844 52.585938 980.113281 53.980469 978.167969 55.421875 C 976.226562 56.867188 974.316406 58.355469 972.449219 59.890625 C 970.578125 61.425781 968.746094 63.007812 966.953125 64.632812 C 965.160156 66.261719 963.40625 67.929688 961.695312 69.640625 C 959.984375 71.351562 958.316406 73.105469 956.691406 74.902344 C 955.066406 76.695312 953.484375 78.527344 951.949219 80.398438 C 950.414062 82.269531 948.925781 84.179688 947.484375 86.121094 C 946.042969 88.066406 944.648438 90.046875 943.304688 92.058594 C 941.960938 94.070312 940.667969 96.117188 939.421875 98.191406 C 938.179688 100.269531 936.984375 102.375 935.84375 104.511719 C 934.703125 106.644531 933.617188 108.808594 932.582031 110.996094 C 931.546875 113.183594 930.566406 115.398438 929.640625 117.632812 C 928.714844 119.871094 927.84375 122.128906 927.027344 124.40625 C 926.214844 126.6875 925.453125 128.984375 924.753906 131.300781 C 924.050781 133.617188 923.40625 135.949219 922.816406 138.296875 C 922.226562 140.644531 921.699219 143.007812 921.226562 145.378906 C 920.753906 147.753906 920.339844 150.140625 919.984375 152.535156 C 919.628906 154.929688 919.335938 157.328125 919.097656 159.738281 C 918.859375 162.148438 918.683594 164.5625 918.5625 166.980469 C 918.445312 169.398438 918.386719 171.816406 918.386719 174.238281 C 918.386719 176.65625 918.445312 179.078125 918.5625 181.496094 C 918.683594 183.914062 918.859375 186.324219 919.097656 188.734375 C 919.335938 191.144531 919.628906 193.546875 919.984375 195.941406 C 920.339844 198.335938 920.753906 200.71875 921.226562 203.09375 C 921.699219 205.46875 922.226562 207.828125 922.816406 210.175781 C 923.40625 212.523438 924.050781 214.855469 924.753906 217.171875 C 925.453125 219.488281 926.214844 221.789062 927.027344 224.066406 C 927.84375 226.347656 928.714844 228.605469 929.640625 230.839844 C 930.566406 233.078125 931.546875 235.289062 932.582031 237.476562 C 933.617188 239.667969 934.703125 241.828125 935.84375 243.964844 C 936.984375 246.097656 938.179688 248.203125 939.421875 250.28125 C 940.667969 252.355469 941.960938 254.402344 943.304688 256.414062 C 944.648438 258.425781 946.042969 260.40625 947.484375 262.351562 C 948.925781 264.296875 950.414062 266.203125 951.949219 268.074219 C 953.484375 269.945312 955.066406 271.777344 956.691406 273.574219 C 958.316406 275.367188 959.984375 277.121094 961.695312 278.832031 C 963.40625 280.542969 965.160156 282.214844 966.953125 283.839844 C 968.746094 285.464844 970.578125 287.046875 972.449219 288.582031 C 974.316406 290.117188 976.226562 291.609375 978.167969 293.050781 C 980.113281 294.492188 982.089844 295.886719 984.105469 297.234375 C 986.117188 298.578125 988.160156 299.875 990.234375 301.117188 C 992.3125 302.363281 994.417969 303.558594 996.550781 304.699219 C 998.6875 305.839844 1000.847656 306.929688 1003.035156 307.964844 C 1005.222656 309 1007.433594 309.984375 1009.671875 310.910156 C 1011.90625 311.835938 1014.164062 312.707031 1016.441406 313.523438 C 1018.722656 314.339844 1021.019531 315.101562 1023.335938 315.804688 C 1025.652344 316.507812 1027.984375 317.15625 1030.332031 317.746094 C 1032.679688 318.332031 1035.039062 318.863281 1037.414062 319.335938 C 1039.789062 319.8125 1042.171875 320.226562 1044.566406 320.582031 C 1046.960938 320.9375 1049.363281 321.234375 1051.773438 321.472656 C 1054.179688 321.710938 1056.59375 321.890625 1059.011719 322.011719 C 1061.429688 322.132812 1063.847656 322.191406 1066.269531 322.191406 L 1436.769531 322.191406 C 1437.09375 322.191406 1437.40625 322.132812 1437.707031 322.007812 C 1438.007812 321.882812 1438.269531 321.707031 1438.5 321.476562 C 1438.730469 321.246094 1438.90625 320.984375 1439.03125 320.683594 C 1439.15625 320.382812 1439.21875 320.070312 1439.21875 319.746094 C 1439.21875 319.421875 1439.15625 319.109375 1439.03125 318.8125 C 1438.90625 318.511719 1438.730469 318.246094 1438.5 318.019531 C 1438.269531 317.789062 1438.007812 317.613281 1437.707031 317.488281 C 1437.40625 317.363281 1437.09375 317.300781 1436.769531 317.300781 L 1066.269531 317.300781 C 1063.929688 317.300781 1061.585938 317.246094 1059.25 317.128906 C 1056.910156 317.015625 1054.578125 316.84375 1052.246094 316.613281 C 1049.917969 316.382812 1047.59375 316.097656 1045.277344 315.753906 C 1042.960938 315.410156 1040.65625 315.011719 1038.359375 314.554688 C 1036.0625 314.097656 1033.777344 313.582031 1031.507812 313.015625 C 1029.234375 312.445312 1026.980469 311.820312 1024.738281 311.140625 C 1022.5 310.460938 1020.277344 309.726562 1018.070312 308.9375 C 1015.867188 308.148438 1013.683594 307.308594 1011.519531 306.410156 C 1009.355469 305.515625 1007.21875 304.566406 1005.101562 303.566406 C 1002.984375 302.566406 1000.894531 301.511719 998.828125 300.410156 C 996.765625 299.304688 994.726562 298.152344 992.71875 296.949219 C 990.710938 295.746094 988.734375 294.492188 986.785156 293.191406 C 984.839844 291.890625 982.925781 290.542969 981.046875 289.148438 C 979.164062 287.753906 977.320312 286.3125 975.507812 284.828125 C 973.699219 283.34375 971.925781 281.8125 970.191406 280.242188 C 968.457031 278.667969 966.761719 277.054688 965.105469 275.398438 C 963.453125 273.742188 961.835938 272.046875 960.265625 270.3125 C 958.691406 268.578125 957.164062 266.804688 955.679688 264.996094 C 954.191406 263.1875 952.753906 261.339844 951.359375 259.460938 C 949.964844 257.578125 948.617188 255.667969 947.316406 253.71875 C 946.015625 251.773438 944.761719 249.796875 943.558594 247.785156 C 942.355469 245.777344 941.199219 243.742188 940.097656 241.675781 C 938.992188 239.613281 937.941406 237.523438 936.941406 235.40625 C 935.9375 233.289062 934.988281 231.148438 934.09375 228.984375 C 933.199219 226.824219 932.355469 224.636719 931.566406 222.433594 C 930.777344 220.230469 930.042969 218.007812 929.363281 215.765625 C 928.683594 213.527344 928.058594 211.269531 927.492188 209 C 926.921875 206.726562 926.410156 204.445312 925.953125 202.148438 C 925.496094 199.851562 925.097656 197.542969 924.753906 195.230469 C 924.410156 192.914062 924.121094 190.589844 923.894531 188.257812 C 923.664062 185.929688 923.492188 183.59375 923.375 181.257812 C 923.261719 178.917969 923.203125 176.578125 923.203125 174.238281 C 923.203125 171.894531 923.261719 169.554688 923.375 167.21875 C 923.492188 164.878906 923.664062 162.542969 923.894531 160.214844 C 924.121094 157.882812 924.410156 155.5625 924.753906 153.246094 C 925.097656 150.929688 925.496094 148.621094 925.953125 146.324219 C 926.410156 144.03125 926.921875 141.746094 927.492188 139.476562 C 928.058594 137.203125 928.683594 134.949219 929.363281 132.707031 C 930.042969 130.464844 930.777344 128.242188 931.566406 126.039062 C 932.355469 123.835938 933.199219 121.652344 934.09375 119.488281 C 934.988281 117.324219 935.9375 115.183594 936.941406 113.070312 C 937.941406 110.953125 938.992188 108.859375 940.097656 106.796875 C 941.199219 104.730469 942.355469 102.695312 943.558594 100.6875 C 944.761719 98.679688 946.015625 96.699219 947.316406 94.753906 C 948.617188 92.808594 949.964844 90.894531 951.359375 89.011719 C 952.753906 87.132812 954.191406 85.285156 955.679688 83.476562 C 957.164062 81.667969 958.691406 79.894531 960.265625 78.160156 C 961.835938 76.425781 963.453125 74.730469 965.105469 73.074219 C 966.761719 71.417969 968.457031 69.804688 970.191406 68.234375 C 971.925781 66.660156 973.699219 65.132812 975.507812 63.644531 C 977.320312 62.160156 979.164062 60.71875 981.046875 59.324219 C 982.925781 57.929688 984.839844 56.582031 986.785156 55.28125 C 988.734375 53.980469 990.710938 52.730469 992.71875 51.527344 C 994.726562 50.320312 996.765625 49.167969 998.828125 48.066406 C 1000.894531 46.960938 1002.984375 45.910156 1005.101562 44.90625 C 1007.21875 43.90625 1009.355469 42.957031 1011.519531 42.0625 C 1013.683594 41.164062 1015.867188 40.324219 1018.070312 39.535156 C 1020.277344 38.746094 1022.5 38.011719 1024.738281 37.332031 C 1026.980469 36.652344 1029.234375 36.027344 1031.507812 35.460938 C 1033.777344 34.890625 1036.0625 34.378906 1038.359375 33.921875 C 1040.65625 33.464844 1042.960938 33.0625 1045.277344 32.71875 C 1047.59375 32.375 1049.917969 32.089844 1052.246094 31.859375 C 1054.578125 31.632812 1056.910156 31.457031 1059.25 31.34375 C 1061.585938 31.230469 1063.929688 31.171875 1066.269531 31.171875 L 1436.769531 31.171875 C 1437.09375 31.171875 1437.40625 31.109375 1437.707031 30.984375 C 1438.007812 30.863281 1438.269531 30.683594 1438.5 30.457031 C 1438.730469 30.226562 1438.90625 29.960938 1439.03125 29.660156 C 1439.15625 29.363281 1439.21875 29.050781 1439.21875 28.726562 C 1439.21875 28.402344 1439.15625 28.089844 1439.03125 27.789062 C 1438.90625 27.492188 1438.730469 27.226562 1438.5 26.996094 C 1438.269531 26.765625 1438.007812 26.589844 1437.707031 26.464844 C 1437.40625 26.34375 1437.09375 26.28125 1436.769531 26.28125 Z M 1436.6875 52.582031 L 1066.722656 52.582031 C 1064.730469 52.582031 1062.742188 52.632812 1060.753906 52.730469 C 1058.769531 52.828125 1056.785156 52.972656 1054.804688 53.167969 C 1052.824219 53.363281 1050.847656 53.605469 1048.878906 53.898438 C 1046.910156 54.191406 1044.953125 54.53125 1043 54.917969 C 1041.046875 55.308594 1039.105469 55.742188 1037.175781 56.226562 C 1035.246094 56.710938 1033.328125 57.242188 1031.425781 57.816406 C 1029.519531 58.394531 1027.632812 59.019531 1025.757812 59.691406 C 1023.882812 60.359375 1022.027344 61.078125 1020.191406 61.839844 C 1018.351562 62.601562 1016.53125 63.40625 1014.734375 64.257812 C 1012.933594 65.109375 1011.15625 66 1009.402344 66.941406 C 1007.648438 67.878906 1005.917969 68.859375 1004.210938 69.882812 C 1002.503906 70.90625 1000.824219 71.96875 999.167969 73.074219 C 997.511719 74.179688 995.886719 75.324219 994.289062 76.511719 C 992.691406 77.695312 991.121094 78.921875 989.582031 80.183594 C 988.046875 81.445312 986.539062 82.746094 985.066406 84.082031 C 983.589844 85.417969 982.148438 86.789062 980.742188 88.195312 C 979.335938 89.601562 977.964844 91.042969 976.625 92.519531 C 975.289062 93.992188 973.992188 95.5 972.730469 97.039062 C 971.464844 98.574219 970.242188 100.144531 969.058594 101.742188 C 967.871094 103.339844 966.726562 104.96875 965.621094 106.621094 C 964.515625 108.277344 963.449219 109.957031 962.425781 111.664062 C 961.40625 113.371094 960.425781 115.101562 959.484375 116.855469 C 958.546875 118.613281 957.652344 120.390625 956.800781 122.1875 C 955.953125 123.988281 955.144531 125.804688 954.382812 127.644531 C 953.621094 129.480469 952.90625 131.339844 952.234375 133.210938 C 951.566406 135.085938 950.941406 136.976562 950.363281 138.878906 C 949.785156 140.785156 949.257812 142.699219 948.773438 144.632812 C 948.289062 146.5625 947.851562 148.503906 947.464844 150.453125 C 947.078125 152.40625 946.738281 154.367188 946.445312 156.335938 C 946.152344 158.300781 945.910156 160.277344 945.714844 162.257812 C 945.519531 164.238281 945.371094 166.222656 945.273438 168.210938 C 945.175781 170.195312 945.128906 172.1875 945.128906 174.175781 C 945.128906 176.164062 945.175781 178.15625 945.273438 180.140625 C 945.371094 182.128906 945.519531 184.113281 945.714844 186.09375 C 945.910156 188.074219 946.152344 190.046875 946.445312 192.015625 C 946.738281 193.984375 947.078125 195.945312 947.464844 197.898438 C 947.851562 199.847656 948.289062 201.789062 948.773438 203.71875 C 949.257812 205.652344 949.785156 207.566406 950.363281 209.472656 C 950.941406 211.375 951.566406 213.265625 952.234375 215.140625 C 952.90625 217.011719 953.621094 218.867188 954.382812 220.707031 C 955.144531 222.546875 955.953125 224.363281 956.800781 226.164062 C 957.652344 227.960938 958.546875 229.738281 959.484375 231.496094 C 960.425781 233.25 961.40625 234.980469 962.425781 236.6875 C 963.449219 238.394531 964.515625 240.074219 965.621094 241.730469 C 966.726562 243.382812 967.871094 245.011719 969.058594 246.609375 C 970.242188 248.207031 971.464844 249.773438 972.730469 251.3125 C 973.992188 252.851562 975.289062 254.359375 976.625 255.832031 C 977.964844 257.308594 979.335938 258.746094 980.742188 260.15625 C 982.148438 261.5625 983.589844 262.933594 985.066406 264.269531 C 986.539062 265.605469 988.046875 266.90625 989.582031 268.167969 C 991.121094 269.429688 992.691406 270.65625 994.289062 271.839844 C 995.886719 273.027344 997.511719 274.171875 999.167969 275.277344 C 1000.824219 276.382812 1002.503906 277.445312 1004.210938 278.46875 C 1005.917969 279.492188 1007.648438 280.472656 1009.402344 281.410156 C 1011.15625 282.347656 1012.933594 283.242188 1014.734375 284.09375 C 1016.53125 284.945312 1018.351562 285.75 1020.191406 286.511719 C 1022.027344 287.273438 1023.882812 287.992188 1025.757812 288.660156 C 1027.632812 289.332031 1029.519531 289.957031 1031.425781 290.53125 C 1033.328125 291.109375 1035.246094 291.640625 1037.175781 292.125 C 1039.105469 292.609375 1041.046875 293.042969 1043 293.433594 C 1044.953125 293.820312 1046.910156 294.160156 1048.878906 294.453125 C 1050.847656 294.746094 1052.824219 294.988281 1054.804688 295.183594 C 1056.785156 295.378906 1058.769531 295.523438 1060.753906 295.621094 C 1062.742188 295.71875 1064.730469 295.769531 1066.722656 295.769531 L 1436.6875 295.769531 C 1437.011719 295.769531 1437.320312 295.707031 1437.621094 295.582031 C 1437.921875 295.457031 1438.1875 295.28125 1438.414062 295.050781 C 1438.644531 294.824219 1438.820312 294.558594 1438.945312 294.257812 C 1439.070312 293.960938 1439.132812 293.648438 1439.132812 293.324219 C 1439.132812 293 1439.070312 292.6875 1438.945312 292.386719 C 1438.820312 292.085938 1438.644531 291.824219 1438.414062 291.59375 C 1438.1875 291.363281 1437.921875 291.1875 1437.621094 291.0625 C 1437.320312 290.941406 1437.011719 290.878906 1436.6875 290.878906 L 1066.722656 290.878906 C 1064.8125 290.878906 1062.902344 290.832031 1060.996094 290.738281 C 1059.085938 290.644531 1057.183594 290.503906 1055.28125 290.316406 C 1053.382812 290.128906 1051.488281 289.894531 1049.597656 289.613281 C 1047.707031 289.335938 1045.828125 289.007812 1043.953125 288.636719 C 1042.082031 288.261719 1040.21875 287.84375 1038.367188 287.378906 C 1036.511719 286.917969 1034.671875 286.40625 1032.84375 285.851562 C 1031.015625 285.296875 1029.203125 284.699219 1027.40625 284.054688 C 1025.609375 283.414062 1023.824219 282.726562 1022.0625 281.996094 C 1020.296875 281.261719 1018.550781 280.488281 1016.824219 279.671875 C 1015.097656 278.855469 1013.394531 277.996094 1011.707031 277.097656 C 1010.023438 276.199219 1008.363281 275.257812 1006.726562 274.273438 C 1005.085938 273.292969 1003.472656 272.269531 1001.886719 271.210938 C 1000.296875 270.148438 998.734375 269.050781 997.203125 267.910156 C 995.667969 266.773438 994.164062 265.597656 992.6875 264.386719 C 991.210938 263.175781 989.765625 261.929688 988.347656 260.644531 C 986.933594 259.363281 985.550781 258.046875 984.199219 256.695312 C 982.851562 255.347656 981.535156 253.964844 980.25 252.546875 C 978.96875 251.132812 977.722656 249.6875 976.507812 248.210938 C 975.296875 246.734375 974.125 245.230469 972.984375 243.695312 C 971.847656 242.160156 970.75 240.601562 969.6875 239.011719 C 968.625 237.421875 967.605469 235.8125 966.621094 234.171875 C 965.640625 232.535156 964.699219 230.871094 963.800781 229.1875 C 962.898438 227.503906 962.039062 225.796875 961.222656 224.070312 C 960.40625 222.34375 959.632812 220.601562 958.902344 218.835938 C 958.171875 217.070312 957.484375 215.289062 956.839844 213.492188 C 956.199219 211.691406 955.597656 209.878906 955.042969 208.050781 C 954.488281 206.226562 953.980469 204.382812 953.515625 202.53125 C 953.054688 200.679688 952.632812 198.816406 952.261719 196.941406 C 951.890625 195.070312 951.5625 193.1875 951.28125 191.300781 C 951.003906 189.410156 950.769531 187.515625 950.582031 185.613281 C 950.394531 183.714844 950.253906 181.808594 950.160156 179.902344 C 950.066406 177.996094 950.019531 176.085938 950.019531 174.175781 C 950.019531 172.265625 950.066406 170.355469 950.160156 168.449219 C 950.253906 166.542969 950.394531 164.636719 950.582031 162.738281 C 950.769531 160.835938 951.003906 158.941406 951.28125 157.050781 C 951.5625 155.164062 951.890625 153.28125 952.261719 151.40625 C 952.632812 149.535156 953.054688 147.671875 953.515625 145.820312 C 953.980469 143.964844 954.492188 142.125 955.042969 140.296875 C 955.597656 138.472656 956.199219 136.65625 956.839844 134.859375 C 957.484375 133.0625 958.171875 131.28125 958.902344 129.515625 C 959.632812 127.75 960.40625 126.003906 961.222656 124.277344 C 962.039062 122.550781 962.898438 120.847656 963.800781 119.164062 C 964.699219 117.476562 965.640625 115.816406 966.621094 114.179688 C 967.605469 112.539062 968.625 110.925781 969.6875 109.339844 C 970.75 107.75 971.847656 106.191406 972.984375 104.65625 C 974.125 103.121094 975.296875 101.617188 976.507812 100.140625 C 977.722656 98.664062 978.96875 97.21875 980.25 95.804688 C 981.535156 94.386719 982.851562 93.003906 984.199219 91.65625 C 985.550781 90.304688 986.933594 88.988281 988.347656 87.703125 C 989.765625 86.421875 991.210938 85.175781 992.6875 83.964844 C 994.164062 82.753906 995.667969 81.578125 997.203125 80.441406 C 998.734375 79.300781 1000.296875 78.203125 1001.886719 77.140625 C 1003.472656 76.082031 1005.085938 75.058594 1006.726562 74.078125 C 1008.363281 73.09375 1010.023438 72.152344 1011.707031 71.253906 C 1013.394531 70.351562 1015.097656 69.496094 1016.824219 68.679688 C 1018.550781 67.863281 1020.296875 67.085938 1022.0625 66.355469 C 1023.824219 65.625 1025.609375 64.9375 1027.40625 64.296875 C 1029.203125 63.652344 1031.015625 63.054688 1032.84375 62.5 C 1034.671875 61.945312 1036.511719 61.433594 1038.367188 60.972656 C 1040.21875 60.507812 1042.082031 60.089844 1043.953125 59.714844 C 1045.828125 59.34375 1047.707031 59.015625 1049.597656 58.738281 C 1051.488281 58.457031 1053.382812 58.222656 1055.28125 58.035156 C 1057.183594 57.847656 1059.085938 57.707031 1060.996094 57.613281 C 1062.902344 57.519531 1064.8125 57.472656 1066.722656 57.472656 L 1436.6875 57.472656 C 1437.011719 57.472656 1437.320312 57.410156 1437.621094 57.289062 C 1437.921875 57.164062 1438.1875 56.988281 1438.414062 56.757812 C 1438.644531 56.527344 1438.820312 56.261719 1438.945312 55.964844 C 1439.070312 55.664062 1439.132812 55.351562 1439.132812 55.027344 C 1439.132812 54.703125 1439.070312 54.390625 1438.945312 54.09375 C 1438.820312 53.792969 1438.644531 53.527344 1438.414062 53.296875 C 1438.1875 53.070312 1437.921875 52.894531 1437.621094 52.769531 C 1437.320312 52.644531 1437.011719 52.582031 1436.6875 52.582031 Z M 1436.613281 78.933594 L 1067.210938 78.933594 C 1065.640625 78.914062 1064.070312 78.9375 1062.503906 78.996094 C 1060.933594 79.054688 1059.367188 79.15625 1057.800781 79.292969 C 1056.238281 79.429688 1054.679688 79.605469 1053.121094 79.820312 C 1051.566406 80.035156 1050.019531 80.285156 1048.476562 80.578125 C 1046.933594 80.867188 1045.398438 81.199219 1043.871094 81.566406 C 1042.34375 81.929688 1040.828125 82.335938 1039.320312 82.777344 C 1037.8125 83.21875 1036.320312 83.699219 1034.835938 84.214844 C 1033.351562 84.730469 1031.882812 85.28125 1030.429688 85.871094 C 1028.972656 86.460938 1027.53125 87.082031 1026.105469 87.742188 C 1024.683594 88.402344 1023.273438 89.097656 1021.882812 89.828125 C 1020.492188 90.558594 1019.121094 91.320312 1017.769531 92.117188 C 1016.417969 92.914062 1015.085938 93.746094 1013.773438 94.609375 C 1012.460938 95.46875 1011.171875 96.367188 1009.902344 97.292969 C 1008.636719 98.21875 1007.394531 99.175781 1006.171875 100.164062 C 1004.953125 101.152344 1003.757812 102.171875 1002.589844 103.21875 C 1001.417969 104.265625 1000.273438 105.34375 999.160156 106.445312 C 998.042969 107.550781 996.953125 108.679688 995.894531 109.839844 C 994.832031 110.996094 993.800781 112.179688 992.796875 113.386719 C 991.796875 114.597656 990.824219 115.828125 989.882812 117.085938 C 988.941406 118.34375 988.035156 119.625 987.15625 120.925781 C 986.277344 122.226562 985.433594 123.550781 984.621094 124.894531 C 983.808594 126.238281 983.027344 127.597656 982.285156 128.980469 C 981.539062 130.363281 980.828125 131.761719 980.152344 133.179688 C 979.476562 134.597656 978.835938 136.03125 978.230469 137.480469 C 977.625 138.929688 977.058594 140.390625 976.523438 141.867188 C 975.992188 143.347656 975.496094 144.835938 975.035156 146.335938 C 974.578125 147.839844 974.15625 149.351562 973.773438 150.875 C 973.386719 152.394531 973.042969 153.925781 972.734375 155.464844 C 972.425781 157.003906 972.15625 158.550781 971.921875 160.105469 C 971.691406 161.65625 971.496094 163.214844 971.339844 164.777344 C 971.1875 166.339844 971.070312 167.90625 970.992188 169.472656 C 970.914062 171.042969 970.875 172.613281 970.875 174.183594 C 970.875 175.75 970.914062 177.320312 970.992188 178.890625 C 971.070312 180.457031 971.1875 182.023438 971.339844 183.585938 C 971.496094 185.148438 971.691406 186.707031 971.921875 188.257812 C 972.15625 189.8125 972.425781 191.359375 972.734375 192.898438 C 973.042969 194.4375 973.386719 195.96875 973.773438 197.492188 C 974.15625 199.011719 974.578125 200.523438 975.035156 202.027344 C 975.496094 203.527344 975.992188 205.015625 976.523438 206.496094 C 977.058594 207.972656 977.625 209.433594 978.230469 210.882812 C 978.835938 212.332031 979.476562 213.765625 980.152344 215.183594 C 980.828125 216.601562 981.539062 218 982.285156 219.382812 C 983.027344 220.765625 983.808594 222.125 984.621094 223.46875 C 985.433594 224.8125 986.277344 226.136719 987.15625 227.4375 C 988.035156 228.742188 988.941406 230.019531 989.882812 231.277344 C 990.824219 232.535156 991.796875 233.765625 992.796875 234.976562 C 993.800781 236.183594 994.832031 237.367188 995.894531 238.523438 C 996.953125 239.683594 998.042969 240.8125 999.160156 241.917969 C 1000.273438 243.019531 1001.417969 244.097656 1002.589844 245.144531 C 1003.757812 246.191406 1004.953125 247.210938 1006.171875 248.199219 C 1007.394531 249.1875 1008.636719 250.144531 1009.902344 251.070312 C 1011.171875 251.996094 1012.460938 252.894531 1013.773438 253.757812 C 1015.085938 254.617188 1016.417969 255.449219 1017.769531 256.246094 C 1019.121094 257.042969 1020.492188 257.808594 1021.882812 258.535156 C 1023.273438 259.265625 1024.683594 259.960938 1026.105469 260.621094 C 1027.53125 261.28125 1028.972656 261.902344 1030.429688 262.492188 C 1031.882812 263.082031 1033.351562 263.632812 1034.835938 264.148438 C 1036.320312 264.664062 1037.8125 265.144531 1039.320312 265.585938 C 1040.828125 266.027344 1042.34375 266.433594 1043.871094 266.796875 C 1045.398438 267.164062 1046.933594 267.496094 1048.476562 267.785156 C 1050.019531 268.078125 1051.566406 268.328125 1053.121094 268.542969 C 1054.679688 268.757812 1056.238281 268.933594 1057.800781 269.070312 C 1059.367188 269.207031 1060.933594 269.308594 1062.503906 269.367188 C 1064.070312 269.425781 1065.640625 269.449219 1067.210938 269.429688 L 1436.613281 269.429688 C 1436.9375 269.429688 1437.25 269.367188 1437.546875 269.242188 C 1437.847656 269.121094 1438.113281 268.941406 1438.339844 268.714844 C 1438.570312 268.484375 1438.746094 268.21875 1438.871094 267.921875 C 1438.996094 267.621094 1439.058594 267.308594 1439.058594 266.984375 C 1439.058594 266.660156 1438.996094 266.347656 1438.871094 266.046875 C 1438.746094 265.75 1438.570312 265.484375 1438.339844 265.253906 C 1438.113281 265.027344 1437.847656 264.847656 1437.546875 264.726562 C 1437.25 264.601562 1436.9375 264.539062 1436.613281 264.539062 L 1067.210938 264.539062 C 1065.722656 264.554688 1064.230469 264.535156 1062.742188 264.480469 C 1061.253906 264.425781 1059.769531 264.332031 1058.285156 264.203125 C 1056.800781 264.070312 1055.320312 263.90625 1053.84375 263.703125 C 1052.367188 263.5 1050.898438 263.257812 1049.433594 262.984375 C 1047.96875 262.707031 1046.511719 262.394531 1045.0625 262.046875 C 1043.617188 261.699219 1042.175781 261.316406 1040.746094 260.898438 C 1039.316406 260.480469 1037.898438 260.023438 1036.492188 259.535156 C 1035.085938 259.046875 1033.691406 258.523438 1032.308594 257.964844 C 1030.925781 257.40625 1029.558594 256.816406 1028.207031 256.191406 C 1026.855469 255.5625 1025.519531 254.90625 1024.199219 254.214844 C 1022.882812 253.523438 1021.578125 252.796875 1020.296875 252.042969 C 1019.011719 251.285156 1017.75 250.496094 1016.503906 249.679688 C 1015.257812 248.859375 1014.035156 248.011719 1012.832031 247.132812 C 1011.628906 246.253906 1010.449219 245.34375 1009.292969 244.40625 C 1008.132812 243.46875 1007 242.503906 1005.890625 241.511719 C 1004.78125 240.515625 1003.695312 239.496094 1002.636719 238.449219 C 1001.574219 237.402344 1000.542969 236.328125 999.535156 235.230469 C 998.53125 234.132812 997.550781 233.007812 996.601562 231.863281 C 995.648438 230.714844 994.726562 229.546875 993.832031 228.355469 C 992.941406 227.160156 992.078125 225.949219 991.246094 224.710938 C 990.410156 223.476562 989.609375 222.222656 988.839844 220.949219 C 988.066406 219.671875 987.328125 218.378906 986.621094 217.066406 C 985.914062 215.757812 985.238281 214.429688 984.597656 213.085938 C 983.957031 211.738281 983.347656 210.378906 982.773438 209.003906 C 982.199219 207.628906 981.660156 206.242188 981.15625 204.839844 C 980.648438 203.4375 980.179688 202.027344 979.746094 200.601562 C 979.308594 199.175781 978.910156 197.742188 978.542969 196.296875 C 978.179688 194.851562 977.851562 193.402344 977.558594 191.941406 C 977.265625 190.480469 977.007812 189.011719 976.789062 187.539062 C 976.566406 186.066406 976.382812 184.585938 976.238281 183.105469 C 976.089844 181.621094 975.980469 180.136719 975.90625 178.648438 C 975.832031 177.160156 975.796875 175.671875 975.796875 174.183594 C 975.796875 172.691406 975.832031 171.203125 975.90625 169.714844 C 975.980469 168.226562 976.089844 166.742188 976.238281 165.257812 C 976.382812 163.777344 976.566406 162.296875 976.789062 160.824219 C 977.007812 159.351562 977.265625 157.882812 977.558594 156.421875 C 977.851562 154.964844 978.179688 153.511719 978.542969 152.066406 C 978.910156 150.621094 979.308594 149.1875 979.746094 147.761719 C 980.179688 146.335938 980.648438 144.925781 981.15625 143.523438 C 981.660156 142.121094 982.199219 140.734375 982.773438 139.359375 C 983.347656 137.984375 983.957031 136.625 984.597656 135.277344 C 985.238281 133.933594 985.914062 132.605469 986.621094 131.296875 C 987.328125 129.984375 988.066406 128.691406 988.839844 127.414062 C 989.609375 126.140625 990.410156 124.886719 991.246094 123.652344 C 992.078125 122.417969 992.941406 121.203125 993.832031 120.011719 C 994.726562 118.816406 995.648438 117.648438 996.601562 116.5 C 997.550781 115.355469 998.53125 114.230469 999.535156 113.132812 C 1000.542969 112.035156 1001.574219 110.960938 1002.636719 109.914062 C 1003.695312 108.867188 1004.78125 107.847656 1005.890625 106.851562 C 1007 105.859375 1008.132812 104.894531 1009.292969 103.957031 C 1010.449219 103.019531 1011.628906 102.109375 1012.832031 101.230469 C 1014.035156 100.351562 1015.257812 99.503906 1016.503906 98.683594 C 1017.75 97.867188 1019.011719 97.078125 1020.296875 96.320312 C 1021.578125 95.566406 1022.882812 94.84375 1024.199219 94.148438 C 1025.519531 93.457031 1026.855469 92.800781 1028.207031 92.175781 C 1029.558594 91.546875 1030.925781 90.957031 1032.308594 90.398438 C 1033.691406 89.839844 1035.085938 89.316406 1036.492188 88.828125 C 1037.898438 88.339844 1039.316406 87.882812 1040.746094 87.464844 C 1042.175781 87.046875 1043.617188 86.664062 1045.0625 86.316406 C 1046.511719 85.96875 1047.96875 85.65625 1049.433594 85.378906 C 1050.898438 85.105469 1052.367188 84.863281 1053.84375 84.660156 C 1055.320312 84.457031 1056.800781 84.292969 1058.285156 84.164062 C 1059.769531 84.03125 1061.253906 83.9375 1062.742188 83.882812 C 1064.230469 83.828125 1065.722656 83.808594 1067.210938 83.824219 L 1436.613281 83.824219 C 1436.9375 83.824219 1437.25 83.761719 1437.546875 83.636719 C 1437.847656 83.515625 1438.113281 83.335938 1438.339844 83.109375 C 1438.570312 82.878906 1438.746094 82.613281 1438.871094 82.316406 C 1438.996094 82.015625 1439.058594 81.703125 1439.058594 81.378906 C 1439.058594 81.054688 1438.996094 80.742188 1438.871094 80.441406 C 1438.746094 80.144531 1438.570312 79.878906 1438.339844 79.648438 C 1438.113281 79.421875 1437.847656 79.242188 1437.546875 79.121094 C 1437.25 78.996094 1436.9375 78.933594 1436.613281 78.933594 Z M 1436.527344 105.273438 L 1067.6875 105.273438 C 1066.558594 105.273438 1065.433594 105.300781 1064.304688 105.355469 C 1063.179688 105.410156 1062.054688 105.492188 1060.933594 105.605469 C 1059.8125 105.714844 1058.691406 105.851562 1057.578125 106.019531 C 1056.460938 106.183594 1055.351562 106.375 1054.246094 106.597656 C 1053.140625 106.816406 1052.039062 107.0625 1050.945312 107.335938 C 1049.851562 107.609375 1048.765625 107.910156 1047.6875 108.238281 C 1046.605469 108.566406 1045.535156 108.917969 1044.476562 109.300781 C 1043.414062 109.679688 1042.359375 110.085938 1041.320312 110.515625 C 1040.277344 110.949219 1039.246094 111.40625 1038.226562 111.886719 C 1037.207031 112.371094 1036.199219 112.875 1035.207031 113.40625 C 1034.210938 113.941406 1033.230469 114.496094 1032.265625 115.074219 C 1031.296875 115.65625 1030.34375 116.257812 1029.40625 116.882812 C 1028.46875 117.511719 1027.546875 118.160156 1026.640625 118.832031 C 1025.734375 119.503906 1024.847656 120.195312 1023.976562 120.914062 C 1023.105469 121.628906 1022.25 122.363281 1021.414062 123.121094 C 1020.578125 123.878906 1019.761719 124.65625 1018.964844 125.453125 C 1018.167969 126.25 1017.390625 127.066406 1016.632812 127.902344 C 1015.875 128.738281 1015.140625 129.59375 1014.425781 130.464844 C 1013.707031 131.335938 1013.015625 132.222656 1012.34375 133.128906 C 1011.671875 134.035156 1011.023438 134.957031 1010.394531 135.894531 C 1009.769531 136.832031 1009.167969 137.785156 1008.585938 138.753906 C 1008.007812 139.71875 1007.453125 140.699219 1006.921875 141.695312 C 1006.386719 142.6875 1005.882812 143.695312 1005.398438 144.714844 C 1004.917969 145.734375 1004.460938 146.765625 1004.027344 147.808594 C 1003.597656 148.847656 1003.191406 149.902344 1002.8125 150.960938 C 1002.433594 152.023438 1002.078125 153.09375 1001.75 154.175781 C 1001.421875 155.253906 1001.121094 156.339844 1000.847656 157.433594 C 1000.574219 158.527344 1000.328125 159.628906 1000.109375 160.734375 C 999.886719 161.839844 999.695312 162.949219 999.53125 164.066406 C 999.363281 165.179688 999.226562 166.300781 999.117188 167.421875 C 999.003906 168.542969 998.921875 169.667969 998.867188 170.792969 C 998.8125 171.921875 998.785156 173.046875 998.785156 174.175781 C 998.785156 175.304688 998.8125 176.429688 998.867188 177.554688 C 998.921875 178.683594 999.003906 179.808594 999.117188 180.929688 C 999.226562 182.050781 999.363281 183.171875 999.53125 184.285156 C 999.695312 185.402344 999.886719 186.511719 1000.109375 187.617188 C 1000.328125 188.722656 1000.574219 189.824219 1000.847656 190.917969 C 1001.121094 192.011719 1001.421875 193.097656 1001.75 194.175781 C 1002.078125 195.257812 1002.433594 196.328125 1002.8125 197.386719 C 1003.191406 198.449219 1003.597656 199.503906 1004.027344 200.542969 C 1004.460938 201.585938 1004.917969 202.617188 1005.398438 203.636719 C 1005.882812 204.65625 1006.386719 205.660156 1006.921875 206.65625 C 1007.453125 207.652344 1008.007812 208.632812 1008.585938 209.597656 C 1009.167969 210.566406 1009.769531 211.519531 1010.394531 212.457031 C 1011.023438 213.394531 1011.671875 214.316406 1012.34375 215.222656 C 1013.015625 216.128906 1013.707031 217.015625 1014.425781 217.886719 C 1015.140625 218.757812 1015.875 219.613281 1016.632812 220.449219 C 1017.390625 221.285156 1018.167969 222.101562 1018.964844 222.898438 C 1019.761719 223.695312 1020.578125 224.472656 1021.414062 225.230469 C 1022.25 225.988281 1023.105469 226.722656 1023.976562 227.4375 C 1024.847656 228.152344 1025.734375 228.847656 1026.640625 229.519531 C 1027.546875 230.191406 1028.46875 230.839844 1029.40625 231.46875 C 1030.34375 232.09375 1031.296875 232.695312 1032.265625 233.277344 C 1033.230469 233.855469 1034.210938 234.410156 1035.207031 234.941406 C 1036.199219 235.476562 1037.207031 235.980469 1038.226562 236.464844 C 1039.246094 236.945312 1040.277344 237.402344 1041.320312 237.835938 C 1042.359375 238.265625 1043.414062 238.671875 1044.476562 239.050781 C 1045.535156 239.429688 1046.605469 239.785156 1047.6875 240.113281 C 1048.765625 240.441406 1049.851562 240.742188 1050.945312 241.015625 C 1052.039062 241.289062 1053.140625 241.535156 1054.246094 241.753906 C 1055.351562 241.976562 1056.460938 242.167969 1057.578125 242.332031 C 1058.691406 242.5 1059.8125 242.636719 1060.933594 242.746094 C 1062.054688 242.859375 1063.179688 242.941406 1064.304688 242.996094 C 1065.433594 243.050781 1066.558594 243.078125 1067.6875 243.078125 L 1436.527344 243.078125 C 1436.851562 243.078125 1437.164062 243.015625 1437.460938 242.894531 C 1437.761719 242.769531 1438.027344 242.59375 1438.257812 242.363281 C 1438.484375 242.132812 1438.660156 241.871094 1438.785156 241.570312 C 1438.910156 241.269531 1438.972656 240.957031 1438.972656 240.632812 C 1438.972656 240.308594 1438.910156 239.996094 1438.785156 239.699219 C 1438.660156 239.398438 1438.484375 239.132812 1438.257812 238.90625 C 1438.027344 238.675781 1437.761719 238.5 1437.460938 238.375 C 1437.164062 238.25 1436.851562 238.1875 1436.527344 238.1875 L 1067.6875 238.1875 C 1066.640625 238.1875 1065.59375 238.164062 1064.546875 238.109375 C 1063.5 238.058594 1062.457031 237.984375 1061.414062 237.878906 C 1060.371094 237.777344 1059.332031 237.648438 1058.296875 237.496094 C 1057.257812 237.339844 1056.226562 237.164062 1055.199219 236.957031 C 1054.171875 236.753906 1053.148438 236.523438 1052.132812 236.269531 C 1051.117188 236.015625 1050.109375 235.734375 1049.105469 235.433594 C 1048.101562 235.128906 1047.109375 234.800781 1046.121094 234.445312 C 1045.136719 234.09375 1044.160156 233.714844 1043.191406 233.316406 C 1042.222656 232.914062 1041.265625 232.488281 1040.320312 232.042969 C 1039.371094 231.59375 1038.4375 231.125 1037.511719 230.628906 C 1036.589844 230.136719 1035.675781 229.621094 1034.777344 229.082031 C 1033.878906 228.542969 1032.996094 227.980469 1032.125 227.398438 C 1031.253906 226.816406 1030.398438 226.214844 1029.554688 225.589844 C 1028.714844 224.96875 1027.886719 224.324219 1027.078125 223.65625 C 1026.269531 222.992188 1025.476562 222.308594 1024.699219 221.605469 C 1023.921875 220.902344 1023.164062 220.179688 1022.425781 219.4375 C 1021.683594 218.699219 1020.960938 217.941406 1020.257812 217.164062 C 1019.554688 216.386719 1018.871094 215.59375 1018.207031 214.785156 C 1017.539062 213.976562 1016.894531 213.148438 1016.273438 212.308594 C 1015.648438 211.464844 1015.046875 210.609375 1014.464844 209.738281 C 1013.882812 208.867188 1013.320312 207.984375 1012.78125 207.085938 C 1012.242188 206.1875 1011.726562 205.273438 1011.234375 204.351562 C 1010.738281 203.425781 1010.269531 202.492188 1009.820312 201.542969 C 1009.371094 200.597656 1008.949219 199.640625 1008.546875 198.671875 C 1008.148438 197.703125 1007.769531 196.726562 1007.417969 195.742188 C 1007.0625 194.753906 1006.734375 193.761719 1006.429688 192.757812 C 1006.128906 191.753906 1005.847656 190.746094 1005.59375 189.730469 C 1005.339844 188.714844 1005.109375 187.691406 1004.90625 186.664062 C 1004.699219 185.636719 1004.523438 184.605469 1004.367188 183.566406 C 1004.214844 182.53125 1004.085938 181.492188 1003.984375 180.449219 C 1003.878906 179.40625 1003.804688 178.363281 1003.753906 177.316406 C 1003.699219 176.269531 1003.675781 175.222656 1003.675781 174.175781 C 1003.675781 173.128906 1003.699219 172.082031 1003.753906 171.035156 C 1003.804688 169.988281 1003.878906 168.945312 1003.984375 167.902344 C 1004.085938 166.859375 1004.214844 165.820312 1004.367188 164.78125 C 1004.523438 163.746094 1004.699219 162.714844 1004.90625 161.6875 C 1005.109375 160.660156 1005.339844 159.636719 1005.59375 158.621094 C 1005.847656 157.605469 1006.128906 156.597656 1006.429688 155.59375 C 1006.734375 154.589844 1007.0625 153.597656 1007.417969 152.609375 C 1007.769531 151.625 1008.148438 150.648438 1008.546875 149.679688 C 1008.949219 148.710938 1009.371094 147.753906 1009.820312 146.808594 C 1010.269531 145.859375 1010.738281 144.925781 1011.234375 144 C 1011.726562 143.078125 1012.242188 142.164062 1012.78125 141.265625 C 1013.320312 140.367188 1013.882812 139.484375 1014.464844 138.613281 C 1015.046875 137.742188 1015.648438 136.886719 1016.273438 136.042969 C 1016.894531 135.203125 1017.539062 134.375 1018.207031 133.566406 C 1018.871094 132.757812 1019.554688 131.964844 1020.257812 131.1875 C 1020.960938 130.410156 1021.683594 129.652344 1022.425781 128.910156 C 1023.164062 128.171875 1023.921875 127.449219 1024.699219 126.746094 C 1025.476562 126.042969 1026.269531 125.359375 1027.078125 124.691406 C 1027.886719 124.027344 1028.714844 123.382812 1029.554688 122.761719 C 1030.398438 122.136719 1031.253906 121.53125 1032.125 120.949219 C 1032.996094 120.367188 1033.878906 119.808594 1034.777344 119.269531 C 1035.675781 118.730469 1036.589844 118.214844 1037.511719 117.722656 C 1038.4375 117.226562 1039.371094 116.757812 1040.320312 116.308594 C 1041.265625 115.859375 1042.222656 115.4375 1043.191406 115.035156 C 1044.160156 114.636719 1045.136719 114.257812 1046.121094 113.90625 C 1047.109375 113.550781 1048.101562 113.222656 1049.105469 112.917969 C 1050.109375 112.617188 1051.117188 112.335938 1052.132812 112.082031 C 1053.148438 111.828125 1054.171875 111.597656 1055.199219 111.394531 C 1056.226562 111.1875 1057.257812 111.007812 1058.296875 110.855469 C 1059.332031 110.703125 1060.371094 110.574219 1061.414062 110.472656 C 1062.457031 110.367188 1063.5 110.292969 1064.546875 110.238281 C 1065.59375 110.1875 1066.640625 110.164062 1067.6875 110.164062 L 1436.527344 110.164062 C 1436.851562 110.164062 1437.164062 110.101562 1437.460938 109.976562 C 1437.761719 109.851562 1438.027344 109.675781 1438.257812 109.445312 C 1438.484375 109.21875 1438.660156 108.953125 1438.785156 108.652344 C 1438.910156 108.355469 1438.972656 108.042969 1438.972656 107.71875 C 1438.972656 107.394531 1438.910156 107.082031 1438.785156 106.78125 C 1438.660156 106.480469 1438.484375 106.21875 1438.257812 105.988281 C 1438.027344 105.757812 1437.761719 105.582031 1437.460938 105.457031 C 1437.164062 105.335938 1436.851562 105.273438 1436.527344 105.273438 Z M 1436.453125 131.621094 L 1068.164062 131.621094 C 1066.753906 131.597656 1065.347656 131.644531 1063.945312 131.761719 C 1062.539062 131.875 1061.144531 132.0625 1059.757812 132.316406 C 1058.375 132.570312 1057.003906 132.894531 1055.648438 133.285156 C 1054.296875 133.671875 1052.964844 134.128906 1051.65625 134.652344 C 1050.347656 135.175781 1049.066406 135.761719 1047.816406 136.410156 C 1046.566406 137.0625 1045.351562 137.769531 1044.171875 138.542969 C 1042.992188 139.3125 1041.851562 140.140625 1040.753906 141.023438 C 1039.65625 141.90625 1038.605469 142.84375 1037.601562 143.828125 C 1036.597656 144.816406 1035.644531 145.851562 1034.742188 146.933594 C 1033.839844 148.019531 1032.992188 149.144531 1032.203125 150.308594 C 1031.414062 151.476562 1030.683594 152.679688 1030.011719 153.917969 C 1029.339844 155.15625 1028.730469 156.425781 1028.1875 157.726562 C 1027.644531 159.027344 1027.164062 160.347656 1026.75 161.695312 C 1026.335938 163.042969 1025.992188 164.40625 1025.714844 165.789062 C 1025.4375 167.171875 1025.226562 168.5625 1025.085938 169.964844 C 1024.949219 171.367188 1024.878906 172.773438 1024.878906 174.183594 C 1024.878906 175.589844 1024.949219 176.996094 1025.085938 178.398438 C 1025.226562 179.800781 1025.4375 181.191406 1025.714844 182.574219 C 1025.992188 183.957031 1026.335938 185.320312 1026.75 186.667969 C 1027.164062 188.015625 1027.644531 189.335938 1028.1875 190.636719 C 1028.730469 191.9375 1029.339844 193.207031 1030.011719 194.445312 C 1030.683594 195.683594 1031.414062 196.886719 1032.203125 198.054688 C 1032.992188 199.21875 1033.839844 200.34375 1034.742188 201.429688 C 1035.644531 202.511719 1036.597656 203.546875 1037.601562 204.535156 C 1038.605469 205.523438 1039.65625 206.457031 1040.753906 207.339844 C 1041.851562 208.222656 1042.992188 209.050781 1044.171875 209.820312 C 1045.351562 210.59375 1046.566406 211.300781 1047.816406 211.953125 C 1049.066406 212.601562 1050.347656 213.1875 1051.65625 213.710938 C 1052.964844 214.234375 1054.296875 214.691406 1055.648438 215.082031 C 1057.003906 215.46875 1058.375 215.792969 1059.757812 216.046875 C 1061.144531 216.300781 1062.539062 216.488281 1063.945312 216.601562 C 1065.347656 216.71875 1066.753906 216.765625 1068.164062 216.742188 L 1436.453125 216.742188 C 1436.777344 216.742188 1437.089844 216.679688 1437.390625 216.554688 C 1437.6875 216.429688 1437.953125 216.253906 1438.183594 216.023438 C 1438.410156 215.796875 1438.589844 215.53125 1438.710938 215.230469 C 1438.835938 214.929688 1438.898438 214.621094 1438.898438 214.296875 C 1438.898438 213.96875 1438.835938 213.660156 1438.710938 213.359375 C 1438.589844 213.058594 1438.410156 212.796875 1438.183594 212.566406 C 1437.953125 212.335938 1437.6875 212.160156 1437.390625 212.035156 C 1437.089844 211.910156 1436.777344 211.847656 1436.453125 211.847656 L 1068.164062 211.847656 C 1066.917969 211.871094 1065.671875 211.832031 1064.425781 211.730469 C 1063.183594 211.628906 1061.945312 211.46875 1060.71875 211.242188 C 1059.492188 211.019531 1058.277344 210.734375 1057.078125 210.390625 C 1055.878906 210.042969 1054.699219 209.640625 1053.539062 209.179688 C 1052.382812 208.71875 1051.246094 208.199219 1050.140625 207.625 C 1049.03125 207.050781 1047.953125 206.421875 1046.910156 205.738281 C 1045.863281 205.058594 1044.855469 204.328125 1043.882812 203.542969 C 1042.910156 202.761719 1041.976562 201.933594 1041.085938 201.058594 C 1040.195312 200.183594 1039.351562 199.269531 1038.554688 198.308594 C 1037.753906 197.351562 1037.003906 196.355469 1036.304688 195.324219 C 1035.601562 194.289062 1034.957031 193.226562 1034.359375 192.128906 C 1033.765625 191.03125 1033.226562 189.90625 1032.746094 188.753906 C 1032.261719 187.605469 1031.835938 186.433594 1031.472656 185.238281 C 1031.105469 184.046875 1030.800781 182.839844 1030.554688 181.613281 C 1030.304688 180.390625 1030.121094 179.160156 1029.996094 177.917969 C 1029.875 176.675781 1029.8125 175.429688 1029.8125 174.183594 C 1029.8125 172.933594 1029.875 171.6875 1029.996094 170.445312 C 1030.121094 169.203125 1030.304688 167.972656 1030.554688 166.75 C 1030.800781 165.523438 1031.105469 164.316406 1031.472656 163.125 C 1031.835938 161.929688 1032.261719 160.757812 1032.746094 159.609375 C 1033.226562 158.457031 1033.765625 157.332031 1034.359375 156.234375 C 1034.957031 155.136719 1035.601562 154.074219 1036.304688 153.039062 C 1037.003906 152.007812 1037.753906 151.011719 1038.554688 150.054688 C 1039.351562 149.09375 1040.195312 148.179688 1041.085938 147.304688 C 1041.976562 146.429688 1042.910156 145.601562 1043.882812 144.820312 C 1044.855469 144.035156 1045.863281 143.304688 1046.910156 142.625 C 1047.953125 141.941406 1049.03125 141.3125 1050.140625 140.738281 C 1051.246094 140.164062 1052.382812 139.644531 1053.539062 139.183594 C 1054.699219 138.722656 1055.878906 138.320312 1057.078125 137.972656 C 1058.277344 137.628906 1059.492188 137.34375 1060.71875 137.121094 C 1061.945312 136.894531 1063.183594 136.734375 1064.425781 136.632812 C 1065.671875 136.53125 1066.917969 136.492188 1068.164062 136.515625 L 1436.453125 136.515625 C 1436.777344 136.515625 1437.089844 136.453125 1437.390625 136.328125 C 1437.6875 136.203125 1437.953125 136.027344 1438.183594 135.796875 C 1438.410156 135.570312 1438.589844 135.304688 1438.710938 135.003906 C 1438.835938 134.703125 1438.898438 134.394531 1438.898438 134.070312 C 1438.898438 133.742188 1438.835938 133.433594 1438.710938 133.132812 C 1438.589844 132.832031 1438.410156 132.570312 1438.183594 132.339844 C 1437.953125 132.109375 1437.6875 131.933594 1437.390625 131.808594 C 1437.089844 131.683594 1436.777344 131.621094 1436.453125 131.621094 Z M 1436.453125 131.621094 " fill-opacity="1" fill-rule="nonzero"/></g></svg>