<svg xmlns="http://www.w3.org/2000/svg" xmlns:xlink="http://www.w3.org/1999/xlink" width="40" zoomAndPan="magnify" viewBox="0 0 30 30.000001" height="40" preserveAspectRatio="xMidYMid meet" version="1.0"><defs><clipPath id="61b9309842"><path d="M 0.484375 12 L 9 12 L 9 28.199219 L 0.484375 28.199219 Z M 0.484375 12 " clip-rule="nonzero"/></clipPath><clipPath id="d55d1d0298"><path d="M 10 0.617188 L 29.515625 0.617188 L 29.515625 28 L 10 28 Z M 10 0.617188 " clip-rule="nonzero"/></clipPath></defs><g clip-path="url(#61b9309842)"><path fill="#3d3d4e" d="M 8.917969 27.757812 C 8.410156 28.140625 7.789062 28.367188 7.109375 28.367188 L 3.496094 28.367188 C 1.835938 28.367188 0.484375 27.015625 0.484375 25.355469 L 0.484375 15.71875 C 0.484375 14.058594 1.835938 12.707031 3.496094 12.707031 L 8.917969 12.707031 Z M 8.917969 27.757812 " fill-opacity="1" fill-rule="nonzero"/></g><g clip-path="url(#d55d1d0298)"><path fill="#3d3d4e" d="M 29.394531 17.226562 C 29.394531 18.269531 28.796875 19.1875 27.90625 19.636719 C 28.09375 20.003906 28.191406 20.414062 28.191406 20.839844 C 28.191406 21.886719 27.59375 22.800781 26.703125 23.25 C 26.976562 23.800781 27.058594 24.433594 26.921875 25.058594 C 26.648438 26.28125 25.503906 27.164062 24.191406 27.164062 L 13.132812 27.164062 C 12.34375 27.164062 11.101562 26.914062 10.121094 26.453125 L 10.121094 13.539062 L 10.265625 13.46875 L 13.734375 5.949219 L 13.734375 1.867188 C 13.734375 1.683594 13.816406 1.507812 13.960938 1.394531 C 14 1.367188 14.894531 0.660156 16.144531 0.660156 C 17.539062 0.660156 19.757812 2.867188 19.757812 5.480469 C 19.757812 7.128906 19.167969 9.179688 18.800781 10.296875 L 26.242188 10.296875 C 27.863281 10.296875 29.242188 11.5 29.382812 13.03125 C 29.460938 13.886719 29.175781 14.714844 28.613281 15.328125 C 29.109375 15.828125 29.394531 16.5 29.394531 17.226562 Z M 29.394531 17.226562 " fill-opacity="1" fill-rule="nonzero"/></g></svg>