<svg xmlns="http://www.w3.org/2000/svg" xmlns:xlink="http://www.w3.org/1999/xlink" width="40" zoomAndPan="magnify" viewBox="0 0 30 30.000001" height="40" preserveAspectRatio="xMidYMid meet" version="1.0"><defs><clipPath id="b8e8edbd84"><path d="M 22 0.617188 L 29.515625 0.617188 L 29.515625 17 L 22 17 Z M 22 0.617188 " clip-rule="nonzero"/></clipPath><clipPath id="1bc474fdf6"><path d="M 0.484375 1 L 22 1 L 22 28.199219 L 0.484375 28.199219 Z M 0.484375 1 " clip-rule="nonzero"/></clipPath></defs><g clip-path="url(#b8e8edbd84)"><path fill="#3d3d4e" d="M 22.855469 0.617188 L 28.898438 0.617188 C 29.230469 0.617188 29.503906 0.886719 29.503906 1.222656 L 29.503906 15.722656 C 29.503906 16.058594 29.230469 16.328125 28.898438 16.328125 L 22.855469 16.328125 C 22.523438 16.328125 22.25 16.058594 22.25 15.722656 L 22.25 1.222656 C 22.25 0.886719 22.523438 0.617188 22.855469 0.617188 Z M 22.855469 0.617188 " fill-opacity="1" fill-rule="nonzero"/></g><g clip-path="url(#1bc474fdf6)"><path fill="#3d3d4e" d="M 0.496094 11.796875 C 0.496094 10.746094 1.097656 9.828125 1.988281 9.378906 C 1.804688 9.007812 1.707031 8.597656 1.707031 8.171875 C 1.707031 7.121094 2.304688 6.203125 3.199219 5.753906 C 3.011719 5.382812 2.914062 4.972656 2.914062 4.542969 C 2.914062 3.042969 4.136719 1.824219 5.632812 1.824219 L 16.8125 1.824219 C 17.929688 1.824219 19.960938 2.304688 20.867188 3.210938 C 20.980469 3.324219 21.042969 3.476562 21.042969 3.636719 L 21.042969 14.515625 C 21.042969 14.742188 20.914062 14.953125 20.710938 15.054688 L 19.691406 15.5625 L 16.207031 23.109375 L 16.207031 27.203125 C 16.207031 27.386719 16.125 27.5625 15.984375 27.675781 C 15.945312 27.707031 15.046875 28.414062 13.792969 28.414062 C 12.394531 28.414062 10.164062 26.199219 10.164062 23.578125 C 10.164062 21.925781 10.757812 19.867188 11.128906 18.746094 L 3.519531 18.746094 C 1.851562 18.746094 0.496094 17.390625 0.496094 15.722656 C 0.496094 14.960938 0.78125 14.246094 1.28125 13.699219 C 0.785156 13.199219 0.496094 12.519531 0.496094 11.796875 Z M 0.496094 11.796875 " fill-opacity="1" fill-rule="nonzero"/></g></svg>