<svg xmlns="http://www.w3.org/2000/svg" xmlns:xlink="http://www.w3.org/1999/xlink" width="40" zoomAndPan="magnify" viewBox="0 0 30 30.000001" height="40" preserveAspectRatio="xMidYMid meet" version="1.0"><defs><clipPath id="51d4a0ed6c"><path d="M 0.484375 0 L 29.515625 0 L 29.515625 29.03125 L 0.484375 29.03125 Z M 0.484375 0 " clip-rule="nonzero"/></clipPath></defs><g clip-path="url(#51d4a0ed6c)"><path fill="#77b255" d="M 29.515625 25.804688 C 29.515625 27.589844 28.070312 29.03125 26.289062 29.03125 L 3.710938 29.03125 C 1.929688 29.03125 0.484375 27.589844 0.484375 25.804688 L 0.484375 3.226562 C 0.484375 1.445312 1.929688 0 3.710938 0 L 26.289062 0 C 28.070312 0 29.515625 1.445312 29.515625 3.226562 Z M 29.515625 25.804688 " fill-opacity="1" fill-rule="nonzero"/></g><path fill="#ffffff" d="M 24.097656 5.128906 C 23.164062 4.523438 21.917969 4.789062 21.308594 5.722656 L 12.527344 19.253906 L 8.472656 15.503906 C 7.65625 14.75 6.378906 14.800781 5.625 15.617188 C 4.867188 16.433594 4.917969 17.710938 5.734375 18.464844 L 11.550781 23.84375 C 11.9375 24.199219 12.429688 24.378906 12.917969 24.378906 C 13.460938 24.378906 14.15625 24.152344 14.609375 23.460938 C 14.878906 23.050781 24.691406 7.917969 24.691406 7.917969 C 25.296875 6.984375 25.03125 5.734375 24.097656 5.128906 Z M 24.097656 5.128906 " fill-opacity="1" fill-rule="nonzero"/></svg>