<svg xmlns="http://www.w3.org/2000/svg" xmlns:xlink="http://www.w3.org/1999/xlink" width="50" zoomAndPan="magnify" viewBox="0 0 37.5 37.499999" height="50" preserveAspectRatio="xMidYMid meet" version="1.0"><defs><clipPath id="ec06a81fbc"><path d="M 0 0 L 37.007812 0 L 37.007812 37.007812 L 0 37.007812 Z M 0 0 " clip-rule="nonzero"/></clipPath><clipPath id="9c4866f0d6"><path d="M 6.003906 5.949219 L 31 5.949219 L 31 35.554688 L 6.003906 35.554688 Z M 6.003906 5.949219 " clip-rule="nonzero"/></clipPath></defs><g clip-path="url(#ec06a81fbc)"><path fill="#3d3d4e" d="M 37.007812 18.503906 C 37.007812 19.109375 36.976562 19.714844 36.917969 20.316406 C 36.859375 20.921875 36.769531 21.519531 36.652344 22.113281 C 36.53125 22.707031 36.386719 23.292969 36.210938 23.875 C 36.035156 24.453125 35.828125 25.023438 35.597656 25.585938 C 35.367188 26.144531 35.105469 26.691406 34.820312 27.226562 C 34.535156 27.761719 34.226562 28.277344 33.886719 28.78125 C 33.550781 29.285156 33.191406 29.773438 32.804688 30.242188 C 32.421875 30.710938 32.015625 31.160156 31.585938 31.585938 C 31.160156 32.015625 30.710938 32.421875 30.242188 32.804688 C 29.773438 33.191406 29.285156 33.550781 28.78125 33.886719 C 28.277344 34.226562 27.761719 34.535156 27.226562 34.820312 C 26.691406 35.105469 26.144531 35.367188 25.585938 35.597656 C 25.023438 35.828125 24.453125 36.035156 23.875 36.210938 C 23.292969 36.386719 22.707031 36.53125 22.113281 36.652344 C 21.519531 36.769531 20.921875 36.859375 20.316406 36.917969 C 19.714844 36.976562 19.109375 37.007812 18.503906 37.007812 C 17.898438 37.007812 17.292969 36.976562 16.691406 36.917969 C 16.085938 36.859375 15.488281 36.769531 14.894531 36.652344 C 14.300781 36.53125 13.710938 36.386719 13.132812 36.210938 C 12.550781 36.035156 11.980469 35.828125 11.421875 35.597656 C 10.863281 35.367188 10.316406 35.105469 9.78125 34.820312 C 9.246094 34.535156 8.726562 34.226562 8.222656 33.886719 C 7.71875 33.550781 7.234375 33.191406 6.765625 32.804688 C 6.296875 32.421875 5.847656 32.015625 5.417969 31.585938 C 4.992188 31.160156 4.585938 30.710938 4.199219 30.242188 C 3.816406 29.773438 3.453125 29.285156 3.117188 28.78125 C 2.78125 28.277344 2.46875 27.761719 2.183594 27.226562 C 1.898438 26.691406 1.640625 26.144531 1.410156 25.585938 C 1.175781 25.023438 0.972656 24.453125 0.796875 23.875 C 0.621094 23.292969 0.472656 22.707031 0.355469 22.113281 C 0.238281 21.519531 0.148438 20.921875 0.0898438 20.316406 C 0.03125 19.714844 0 19.109375 0 18.503906 C 0 17.898438 0.03125 17.292969 0.0898438 16.691406 C 0.148438 16.085938 0.238281 15.488281 0.355469 14.894531 C 0.472656 14.300781 0.621094 13.710938 0.796875 13.132812 C 0.972656 12.550781 1.175781 11.980469 1.410156 11.421875 C 1.640625 10.863281 1.898438 10.316406 2.183594 9.78125 C 2.46875 9.246094 2.78125 8.726562 3.117188 8.222656 C 3.453125 7.71875 3.816406 7.234375 4.199219 6.765625 C 4.585938 6.296875 4.992188 5.847656 5.417969 5.417969 C 5.847656 4.992188 6.296875 4.585938 6.765625 4.199219 C 7.234375 3.816406 7.71875 3.453125 8.222656 3.117188 C 8.726562 2.78125 9.246094 2.46875 9.78125 2.183594 C 10.316406 1.898438 10.863281 1.640625 11.421875 1.410156 C 11.980469 1.175781 12.550781 0.972656 13.132812 0.796875 C 13.710938 0.621094 14.300781 0.472656 14.894531 0.355469 C 15.488281 0.238281 16.085938 0.148438 16.691406 0.0898438 C 17.292969 0.03125 17.898438 0 18.503906 0 C 19.109375 0 19.714844 0.03125 20.316406 0.0898438 C 20.921875 0.148438 21.519531 0.238281 22.113281 0.355469 C 22.707031 0.472656 23.292969 0.621094 23.875 0.796875 C 24.453125 0.972656 25.023438 1.175781 25.585938 1.410156 C 26.144531 1.640625 26.691406 1.898438 27.226562 2.183594 C 27.761719 2.46875 28.277344 2.78125 28.78125 3.117188 C 29.285156 3.453125 29.773438 3.816406 30.242188 4.199219 C 30.710938 4.585938 31.160156 4.992188 31.585938 5.417969 C 32.015625 5.847656 32.421875 6.296875 32.804688 6.765625 C 33.191406 7.234375 33.550781 7.71875 33.886719 8.222656 C 34.226562 8.726562 34.535156 9.246094 34.820312 9.78125 C 35.105469 10.316406 35.367188 10.863281 35.597656 11.421875 C 35.828125 11.980469 36.035156 12.550781 36.210938 13.132812 C 36.386719 13.710938 36.53125 14.300781 36.652344 14.894531 C 36.769531 15.488281 36.859375 16.085938 36.917969 16.691406 C 36.976562 17.292969 37.007812 17.898438 37.007812 18.503906 Z M 37.007812 18.503906 " fill-opacity="1" fill-rule="nonzero"/></g><g clip-path="url(#9c4866f0d6)"><path fill="#ffffff" d="M 29.832031 5.949219 L 24.957031 5.949219 C 24.804688 5.949219 24.65625 5.976562 24.515625 6.035156 C 24.375 6.09375 24.246094 6.179688 24.140625 6.285156 C 24.03125 6.394531 23.945312 6.519531 23.886719 6.664062 C 23.828125 6.804688 23.800781 6.953125 23.800781 7.105469 C 23.800781 7.261719 23.828125 7.40625 23.886719 7.550781 C 23.945312 7.691406 24.03125 7.816406 24.140625 7.925781 C 24.246094 8.035156 24.375 8.117188 24.515625 8.175781 C 24.65625 8.234375 24.804688 8.265625 24.957031 8.265625 L 27.078125 8.265625 L 23.210938 12.140625 C 21.945312 11.207031 20.53125 10.699219 18.960938 10.621094 C 18.953125 10.621094 18.945312 10.621094 18.9375 10.621094 C 18.882812 10.617188 18.824219 10.617188 18.769531 10.613281 C 18.757812 10.613281 18.75 10.613281 18.738281 10.613281 C 18.675781 10.613281 18.609375 10.613281 18.546875 10.613281 C 16.808594 10.605469 15.246094 11.125 13.855469 12.164062 L 13.625 11.957031 L 13.246094 11.570312 L 14.6875 10.125 C 14.796875 10.015625 14.878906 9.890625 14.9375 9.75 C 14.992188 9.609375 15.023438 9.460938 15.019531 9.308594 C 15.019531 9.15625 14.992188 9.007812 14.933594 8.867188 C 14.875 8.726562 14.789062 8.601562 14.683594 8.492188 C 14.574219 8.386719 14.449219 8.300781 14.308594 8.242188 C 14.167969 8.183594 14.019531 8.15625 13.867188 8.152344 C 13.714844 8.152344 13.566406 8.183594 13.425781 8.238281 C 13.285156 8.296875 13.160156 8.378906 13.050781 8.488281 L 11.625 9.910156 L 10.015625 8.265625 L 12.027344 8.265625 C 12.183594 8.265625 12.332031 8.234375 12.472656 8.175781 C 12.613281 8.117188 12.738281 8.035156 12.847656 7.925781 C 12.957031 7.816406 13.039062 7.691406 13.101562 7.550781 C 13.160156 7.40625 13.1875 7.261719 13.1875 7.105469 C 13.1875 6.953125 13.160156 6.804688 13.101562 6.664062 C 13.039062 6.519531 12.957031 6.394531 12.847656 6.285156 C 12.738281 6.179688 12.613281 6.09375 12.472656 6.035156 C 12.332031 5.976562 12.183594 5.949219 12.027344 5.949219 L 7.171875 5.949219 C 7.019531 5.949219 6.871094 5.976562 6.730469 6.035156 C 6.585938 6.09375 6.460938 6.179688 6.351562 6.285156 C 6.246094 6.394531 6.160156 6.519531 6.101562 6.664062 C 6.042969 6.804688 6.011719 6.953125 6.011719 7.105469 L 6.011719 11.976562 C 6.011719 12.132812 6.042969 12.28125 6.101562 12.421875 C 6.160156 12.5625 6.246094 12.6875 6.351562 12.796875 C 6.460938 12.90625 6.585938 12.988281 6.730469 13.046875 C 6.871094 13.109375 7.019531 13.136719 7.171875 13.136719 C 7.328125 13.136719 7.472656 13.109375 7.617188 13.046875 C 7.757812 12.988281 7.882812 12.90625 7.992188 12.796875 C 8.101562 12.6875 8.183594 12.5625 8.242188 12.421875 C 8.300781 12.28125 8.332031 12.132812 8.332031 11.976562 L 8.332031 9.929688 L 9.941406 11.59375 L 8.476562 13.0625 C 8.367188 13.167969 8.28125 13.296875 8.222656 13.4375 C 8.164062 13.578125 8.136719 13.726562 8.136719 13.878906 C 8.136719 14.035156 8.164062 14.183594 8.222656 14.324219 C 8.28125 14.464844 8.367188 14.589844 8.476562 14.699219 C 8.585938 14.808594 8.710938 14.890625 8.851562 14.949219 C 8.992188 15.011719 9.140625 15.039062 9.292969 15.039062 C 9.449219 15.039062 9.597656 15.011719 9.738281 14.949219 C 9.878906 14.890625 10.003906 14.808594 10.113281 14.699219 L 11.582031 13.230469 L 11.984375 13.59375 L 12.207031 13.820312 C 11.410156 14.902344 10.921875 16.109375 10.75 17.441406 C 10.746094 17.457031 10.746094 17.46875 10.742188 17.484375 C 10.738281 17.519531 10.734375 17.550781 10.734375 17.585938 C 10.730469 17.621094 10.722656 17.65625 10.722656 17.691406 C 10.71875 17.699219 10.71875 17.710938 10.71875 17.71875 C 10.695312 17.96875 10.683594 18.21875 10.683594 18.476562 C 10.683594 18.734375 10.695312 18.992188 10.71875 19.246094 C 10.722656 19.261719 10.722656 19.277344 10.726562 19.296875 C 10.730469 19.335938 10.734375 19.378906 10.738281 19.417969 C 10.742188 19.453125 10.746094 19.484375 10.75 19.519531 C 10.753906 19.542969 10.757812 19.566406 10.761719 19.589844 C 10.765625 19.636719 10.773438 19.683594 10.78125 19.730469 C 10.78125 19.738281 10.785156 19.746094 10.785156 19.75 C 10.800781 19.84375 10.816406 19.9375 10.835938 20.027344 C 11.015625 20.945312 11.351562 21.804688 11.839844 22.597656 C 11.855469 22.625 11.871094 22.648438 11.882812 22.671875 C 11.894531 22.6875 11.90625 22.703125 11.917969 22.71875 C 12.652344 23.875 13.625 24.777344 14.832031 25.425781 C 14.839844 25.429688 14.847656 25.433594 14.855469 25.4375 C 14.890625 25.457031 14.929688 25.476562 14.964844 25.496094 C 14.992188 25.507812 15.015625 25.523438 15.042969 25.535156 C 15.0625 25.546875 15.085938 25.554688 15.105469 25.566406 C 15.148438 25.585938 15.1875 25.605469 15.230469 25.625 C 15.238281 25.628906 15.242188 25.632812 15.25 25.632812 C 15.929688 25.949219 16.644531 26.164062 17.386719 26.273438 L 17.386719 29.183594 L 15.3125 29.183594 C 15.160156 29.183594 15.011719 29.214844 14.867188 29.273438 C 14.726562 29.332031 14.601562 29.417969 14.492188 29.523438 C 14.386719 29.632812 14.300781 29.757812 14.242188 29.902344 C 14.183594 30.042969 14.15625 30.191406 14.15625 30.34375 C 14.15625 30.496094 14.183594 30.644531 14.242188 30.789062 C 14.300781 30.929688 14.386719 31.054688 14.492188 31.164062 C 14.601562 31.273438 14.726562 31.355469 14.867188 31.414062 C 15.011719 31.472656 15.160156 31.503906 15.3125 31.503906 L 17.386719 31.503906 L 17.386719 34.238281 C 17.386719 34.390625 17.417969 34.539062 17.476562 34.679688 C 17.535156 34.820312 17.617188 34.949219 17.726562 35.054688 C 17.835938 35.164062 17.960938 35.25 18.101562 35.308594 C 18.246094 35.367188 18.394531 35.394531 18.546875 35.394531 C 18.699219 35.394531 18.847656 35.367188 18.988281 35.308594 C 19.132812 35.25 19.257812 35.164062 19.367188 35.054688 C 19.476562 34.949219 19.558594 34.820312 19.617188 34.679688 C 19.675781 34.539062 19.707031 34.390625 19.707031 34.238281 L 19.707031 31.503906 L 21.78125 31.503906 C 21.933594 31.503906 22.082031 31.472656 22.222656 31.414062 C 22.367188 31.355469 22.492188 31.273438 22.601562 31.164062 C 22.710938 31.054688 22.792969 30.929688 22.851562 30.789062 C 22.910156 30.644531 22.941406 30.496094 22.941406 30.34375 C 22.941406 30.191406 22.910156 30.042969 22.851562 29.902344 C 22.792969 29.757812 22.710938 29.632812 22.601562 29.523438 C 22.492188 29.417969 22.367188 29.332031 22.222656 29.273438 C 22.082031 29.214844 21.933594 29.183594 21.78125 29.183594 L 19.707031 29.183594 L 19.707031 26.273438 C 20.453125 26.164062 21.167969 25.949219 21.851562 25.632812 L 21.867188 25.625 C 21.910156 25.605469 21.953125 25.585938 21.996094 25.566406 C 22.015625 25.554688 22.035156 25.546875 22.054688 25.535156 C 22.082031 25.523438 22.109375 25.507812 22.136719 25.496094 C 22.171875 25.476562 22.207031 25.457031 22.242188 25.4375 C 22.253906 25.433594 22.261719 25.429688 22.273438 25.421875 C 22.898438 25.085938 23.46875 24.671875 23.984375 24.183594 C 24.496094 23.691406 24.933594 23.140625 25.300781 22.53125 C 25.664062 21.921875 25.941406 21.273438 26.128906 20.585938 C 26.316406 19.902344 26.410156 19.203125 26.410156 18.492188 C 26.410156 18.488281 26.410156 18.488281 26.410156 18.484375 C 26.410156 18.480469 26.410156 18.480469 26.410156 18.476562 C 26.410156 17.457031 26.222656 16.472656 25.835938 15.527344 C 25.824219 15.496094 25.8125 15.460938 25.796875 15.429688 C 25.792969 15.421875 25.789062 15.410156 25.785156 15.402344 C 25.539062 14.820312 25.230469 14.28125 24.851562 13.777344 L 28.671875 9.949219 L 28.671875 11.960938 C 28.671875 12.117188 28.699219 12.265625 28.757812 12.40625 C 28.816406 12.546875 28.902344 12.671875 29.011719 12.78125 C 29.121094 12.890625 29.246094 12.976562 29.386719 13.035156 C 29.527344 13.09375 29.675781 13.121094 29.828125 13.121094 C 29.984375 13.121094 30.132812 13.09375 30.273438 13.035156 C 30.414062 12.976562 30.539062 12.890625 30.648438 12.78125 C 30.757812 12.671875 30.84375 12.546875 30.902344 12.40625 C 30.960938 12.265625 30.988281 12.117188 30.988281 11.960938 L 30.988281 7.105469 C 30.988281 6.953125 30.960938 6.804688 30.902344 6.664062 C 30.84375 6.519531 30.757812 6.394531 30.648438 6.289062 C 30.539062 6.179688 30.414062 6.09375 30.273438 6.035156 C 30.132812 5.976562 29.984375 5.949219 29.832031 5.949219 Z M 20.691406 23.589844 C 20.664062 23.601562 20.632812 23.613281 20.605469 23.625 C 20.578125 23.636719 20.550781 23.648438 20.527344 23.65625 C 20.519531 23.660156 20.507812 23.664062 20.5 23.667969 C 19.148438 24.171875 17.800781 24.15625 16.460938 23.617188 L 16.457031 23.613281 C 16.421875 23.601562 16.390625 23.585938 16.355469 23.570312 C 16.335938 23.5625 16.316406 23.554688 16.296875 23.542969 C 16.28125 23.539062 16.265625 23.53125 16.25 23.523438 C 15.511719 23.1875 14.878906 22.710938 14.347656 22.097656 C 13.820312 21.484375 13.441406 20.789062 13.214844 20.011719 C 13.210938 19.996094 13.207031 19.980469 13.203125 19.96875 C 13.199219 19.957031 13.195312 19.941406 13.195312 19.929688 C 12.699219 18.078125 13.179688 16.023438 14.628906 14.574219 C 16.789062 12.410156 20.308594 12.410156 22.472656 14.574219 C 23.308594 15.40625 23.820312 16.402344 24.015625 17.566406 C 24.171875 18.496094 24.09375 19.410156 23.785156 20.300781 C 23.78125 20.3125 23.777344 20.320312 23.773438 20.332031 C 23.765625 20.355469 23.753906 20.382812 23.746094 20.410156 C 23.734375 20.4375 23.722656 20.464844 23.714844 20.496094 C 23.710938 20.5 23.707031 20.507812 23.707031 20.515625 C 23.429688 21.207031 23.035156 21.816406 22.515625 22.347656 C 21.996094 22.878906 21.394531 23.292969 20.710938 23.582031 Z M 20.691406 23.589844 " fill-opacity="1" fill-rule="nonzero"/></g></svg>